<svg width="992" height="666" viewBox="0 0 992 666" fill="none" xmlns="http://www.w3.org/2000/svg">
<path d="M989.951 215.519C989.951 97.6655 879.229 2.09863 742.672 2.09863H249.231C112.673 2.09863 2 97.6189 2 215.519C2 258.975 17.1029 299.314 42.938 333C17.1029 366.732 2 407.071 2 450.481C2 568.335 112.722 663.901 249.279 663.901H742.721C879.278 663.901 990 568.335 990 450.481C990 407.025 974.897 366.686 949.062 333C974.897 299.268 990 258.929 990 215.519H989.951Z" fill="white" stroke="#231F20" stroke-width="2.3" stroke-miterlimit="10"/>
<path d="M196.598 276.362V274.662H198.196V255.316H196.598V253.616H209.62V256.948H207.92V255.316H201.494V263.34H206.288V261.708H207.988V266.638H206.288V265.04H201.494V274.662H207.92V273.064H209.62V276.362H196.598ZM224.09 276.362V274.73H222.526V276.362H214.366V274.73H212.768V269.834H214.366V268.202H217.63V266.57H222.458V261.776H217.664V263.408H216.066V265.04H214.366V261.708H217.63V260.11H224.158V261.708H225.79V274.662H227.388V276.362H224.09ZM222.458 268.27H217.664V269.868H216.066V274.662H220.86V273.064H222.458V268.27ZM240.356 274.73V276.362H233.828V274.73H232.196V273.132H230.598V263.34H232.196V261.708H233.828V260.11H240.356V261.708H241.988V265.04H238.69V261.776H235.494V263.408H233.896V273.064H235.494V274.662H240.288V273.064H241.988V274.73H240.356ZM254.864 276.362V274.662H256.496V263.408H254.864V261.776H253.334V263.408H251.702V265.04H250.07V274.662H251.702V276.362H245.174V274.662H246.772V256.948H245.174V255.248H246.772V253.616H250.07V263.34H251.634V261.708H253.266V260.11H258.196V261.708H259.794V274.662H261.426V276.362H254.864ZM275.925 256.948V253.616H279.223V256.948H275.925ZM274.327 276.362V274.662H275.925V263.408H274.327V261.708H275.925V260.11H279.223V274.662H280.855V276.362H274.327ZM292.215 274.73V276.362H284.055V273.064H285.721V274.662H290.515V271.5H288.917V269.868H287.285V268.27H285.653V266.638H284.055V261.708H285.653V260.11H293.813V263.408H292.147V261.776H287.353V264.972H288.951V266.57H290.583V268.202H292.215V269.834H293.813V274.73H292.215ZM305.164 274.73V276.362H297.004V273.064H298.67V274.662H303.464V271.5H301.866V269.868H300.234V268.27H298.602V266.638H297.004V261.708H298.602V260.11H306.762V263.408H305.096V261.776H300.302V264.972H301.9V266.57H303.532V268.202H305.164V269.834H306.762V274.73H305.164ZM322.907 276.362V274.73H319.711V276.362H313.183V274.73H311.551V263.408H309.953V261.708H311.551V260.11H314.849V273.064H316.481V274.662H319.643V273.064H321.275V263.408H319.643V261.708H321.275V260.11H324.573V274.662H326.205V276.362H322.907ZM340.767 273.132V274.73H339.135V276.362H332.607V274.73H330.975V273.132H329.377V263.34H330.975V261.708H332.607V260.11H339.135V261.708H340.767V263.34H342.399V268.27H332.675V273.064H334.273V274.662H339.067V273.064H340.699V271.432H342.399V273.132H340.767ZM339.067 263.408H337.469V261.776H334.273V263.408H332.675V266.57H339.067V263.408ZM376.39 261.776V265.04H374.758V269.868H373.126V273.132H371.528V276.362H369.828V273.132H368.23V269.868H366.598V265.04H365.034V269.868H363.436V273.132H361.804V276.362H360.138V273.132H358.506V269.868H356.874V265.04H355.276V261.776H353.644V260.11H360.172V261.776H358.574V264.972H360.172V269.834H363.368V264.972H364.966V261.776H363.368V260.11H369.896V261.776H368.298V264.972H369.896V269.834H373.058V264.972H374.69V261.776H373.058V260.11H377.988V261.776H376.39ZM381.145 256.948V253.616H384.443V256.948H381.145ZM379.547 276.362V274.662H381.145V263.408H379.547V261.708H381.145V260.11H384.443V274.662H386.075V276.362H379.547ZM389.276 276.362V274.662H390.874V256.948H389.276V255.248H390.874V253.616H394.172V274.662H395.804V276.362H389.276ZM399.004 276.362V274.662H400.602V256.948H399.004V255.248H400.602V253.616H403.9V274.662H405.532V276.362H399.004ZM426.553 256.948V255.316H423.357V260.11H426.621V261.776H423.357V274.662H424.989V276.362H418.461V274.662H420.059V261.776H418.461V260.11H420.059V256.88H421.691V255.248H423.323V253.616H428.219V256.948H426.553ZM441.174 273.132V274.73H439.542V276.362H433.014V274.73H431.382V273.132H429.784V263.34H431.382V261.708H433.014V260.11H439.542V261.708H441.174V263.34H442.806V268.27H433.082V273.064H434.68V274.662H439.474V273.064H441.106V271.432H442.806V273.132H441.174ZM439.474 263.408H437.876V261.776H434.68V263.408H433.082V266.57H439.474V263.408ZM457.275 276.362V274.73H455.711V276.362H447.551V274.73H445.953V269.834H447.551V268.202H450.815V266.57H455.643V261.776H450.849V263.408H449.251V265.04H447.551V261.708H450.815V260.11H457.343V261.708H458.975V274.662H460.573V276.362H457.275ZM455.643 268.27H450.849V269.868H449.251V274.662H454.045V273.064H455.643V268.27ZM467.014 276.362V274.73H465.382V261.776H463.784V260.11H465.382V258.478H467.014V256.88H468.68V260.11H471.944V261.776H468.68V274.662H471.944V276.362H467.014ZM488.06 276.362V274.73H484.864V276.362H478.336V274.73H476.704V263.408H475.106V261.708H476.704V260.11H480.002V273.064H481.634V274.662H484.796V273.064H486.428V263.408H484.796V261.708H486.428V260.11H489.726V274.662H491.358V276.362H488.06ZM501.058 263.408V265.04H499.426V274.662H501.058V276.362H494.53V274.662H496.128V263.408H494.53V261.708H496.128V260.11H499.426V263.34H500.99V261.708H502.622V260.11H505.92V263.408H501.058ZM518.869 273.132V274.73H517.237V276.362H510.709V274.73H509.077V273.132H507.479V263.34H509.077V261.708H510.709V260.11H517.237V261.708H518.869V263.34H520.501V268.27H510.777V273.064H512.375V274.662H517.169V273.064H518.801V271.432H520.501V273.132H518.869ZM517.169 263.408H515.571V261.776H512.375V263.408H510.777V266.57H517.169V263.408ZM544.699 276.362V274.73H543.135V276.362H534.975V274.73H533.377V269.834H534.975V268.202H538.239V266.57H543.067V261.776H538.273V263.408H536.675V265.04H534.975V261.708H538.239V260.11H544.767V261.708H546.399V274.662H547.997V276.362H544.699ZM543.067 268.27H538.273V269.868H536.675V274.662H541.469V273.064H543.067V268.27ZM569.096 274.73V276.362H560.936V273.064H562.602V274.662H567.396V271.5H565.798V269.868H564.166V268.27H562.534V266.638H560.936V261.708H562.534V260.11H570.694V263.408H569.028V261.776H564.234V264.972H565.832V266.57H567.464V268.202H569.096V269.834H570.694V274.73H569.096ZM577.115 276.362V274.73H575.483V261.776H573.885V260.11H575.483V258.478H577.115V256.88H578.781V260.11H582.045V261.776H578.781V274.662H582.045V276.362H577.115ZM598.161 276.362V274.73H594.965V276.362H588.437V274.73H586.805V263.408H585.207V261.708H586.805V260.11H590.103V273.064H591.735V274.662H594.897V273.064H596.529V263.408H594.897V261.708H596.529V260.11H599.827V274.662H601.459V276.362H598.161ZM614.321 276.362V274.73H612.791V276.362H607.861V274.73H606.229V273.132H604.631V263.34H606.229V261.708H607.861V260.11H612.791V261.708H614.321V256.948H612.723V255.248H614.321V253.616H617.653V274.662H619.251V276.362H614.321ZM614.321 263.408H612.723V261.776H609.527V263.408H607.929V273.064H609.527V274.662H612.723V273.064H614.321V263.408ZM633.851 273.132V274.73H632.219V276.362H625.691V274.73H624.059V273.132H622.461V263.34H624.059V261.708H625.691V260.11H632.219V261.708H633.851V263.34H635.483V268.27H625.759V273.064H627.357V274.662H632.151V273.064H633.783V271.432H635.483V273.132H633.851ZM632.151 263.408H630.553V261.776H627.357V263.408H625.759V266.57H632.151V263.408ZM648.321 276.362V274.662H649.953V263.408H648.321V261.776H646.791V263.408H645.159V265.04H643.527V274.662H645.159V276.362H638.631V274.662H640.229V263.408H638.631V261.708H640.229V260.11H643.527V263.34H645.091V261.708H646.723V260.11H651.653V261.708H653.251V274.662H654.883V276.362H648.321ZM661.285 276.362V274.73H659.653V261.776H658.055V260.11H659.653V258.478H661.285V256.88H662.951V260.11H666.215V261.776H662.951V274.662H666.215V276.362H661.285ZM690.428 276.362V274.73H688.864V276.362H680.704V274.73H679.106V269.834H680.704V268.202H683.968V266.57H688.796V261.776H684.002V263.408H682.404V265.04H680.704V261.708H683.968V260.11H690.496V261.708H692.128V274.662H693.726V276.362H690.428ZM688.796 268.27H684.002V269.868H682.404V274.662H687.198V273.064H688.796V268.27ZM706.626 276.362V274.662H708.258V263.408H706.626V261.776H705.096V263.408H703.464V265.04H701.832V274.662H703.464V276.362H696.936V274.662H698.534V263.408H696.936V261.708H698.534V260.11H701.832V263.34H703.396V261.708H705.028V260.11H709.958V261.708H711.556V274.662H713.188V276.362H706.626ZM726.05 276.362V274.73H724.52V276.362H719.59V274.73H717.958V273.132H716.36V263.34H717.958V261.708H719.59V260.11H724.52V261.708H726.05V256.948H724.452V255.248H726.05V253.616H729.382V274.662H730.98V276.362H726.05ZM726.05 263.408H724.452V261.776H721.256V263.408H719.658V273.064H721.256V274.662H724.452V273.064H726.05V263.408ZM207.988 318.132V319.73H206.356V321.362H199.828V319.73H198.196V318.132H196.598V308.34H198.196V306.708H199.828V305.11H206.356V306.708H207.988V308.34H209.62V313.27H199.896V318.064H201.494V319.662H206.288V318.064H207.92V316.432H209.62V318.132H207.988ZM206.288 308.408H204.69V306.776H201.494V308.408H199.896V311.57H206.288V308.408ZM220.86 321.362V319.662H222.458V318.132H220.86V316.5H219.228V314.868H217.664V316.5H216.066V318.132H214.434V319.662H216.066V321.362H211.136V319.662H212.768V318.064H214.366V316.432H215.998V314.834H217.63V313.27H215.998V310.04H214.366V308.408H212.768V306.776H211.136V305.11H217.664V306.776H216.066V308.34H217.664V309.972H219.296V311.57H220.86V309.972H222.458V308.34H224.09V306.776H222.458V305.11H227.388V306.776H225.79V308.408H224.158V310.04H222.526V311.638H220.928V313.202H222.526V316.432H224.158V318.064H225.79V319.662H227.388V321.362H220.86ZM241.96 318.132V319.73H240.328V321.362H235.398V319.73H233.834V324.524H235.466V326.224H228.938V324.524H230.536V308.408H228.938V306.708H230.536V305.11H233.834V306.708H235.398V305.11H240.328V306.708H241.96V308.34H243.558V318.132H241.96ZM240.26 308.408H238.628V306.776H235.466V308.408H233.834V318.064H235.466V319.662H238.628V318.064H240.26V308.408ZM258.158 318.132V319.73H256.526V321.362H249.998V319.73H248.366V318.132H246.768V308.34H248.366V306.708H249.998V305.11H256.526V306.708H258.158V308.34H259.79V313.27H250.066V318.064H251.664V319.662H256.458V318.064H258.09V316.432H259.79V318.132H258.158ZM256.458 308.408H254.86V306.776H251.664V308.408H250.066V311.57H256.458V308.408ZM269.466 308.408V310.04H267.834V319.662H269.466V321.362H262.938V319.662H264.536V308.408H262.938V306.708H264.536V305.11H267.834V308.34H269.398V306.708H271.03V305.11H274.328V308.408H269.466ZM277.485 301.948V298.616H280.783V301.948H277.485ZM275.887 321.362V319.662H277.485V308.408H275.887V306.708H277.485V305.11H280.783V319.662H282.415V321.362H275.887ZM297.006 318.132V319.73H295.374V321.362H288.846V319.73H287.214V318.132H285.616V308.34H287.214V306.708H288.846V305.11H295.374V306.708H297.006V308.34H298.638V313.27H288.914V318.064H290.512V319.662H295.306V318.064H296.938V316.432H298.638V318.132H297.006ZM295.306 308.408H293.708V306.776H290.512V308.408H288.914V311.57H295.306V308.408ZM311.476 321.362V319.662H313.108V308.408H311.476V306.776H309.946V308.408H308.314V310.04H306.682V319.662H308.314V321.362H301.786V319.662H303.384V308.408H301.786V306.708H303.384V305.11H306.682V308.34H308.246V306.708H309.878V305.11H314.808V306.708H316.406V319.662H318.038V321.362H311.476ZM330.967 319.73V321.362H324.439V319.73H322.807V318.132H321.209V308.34H322.807V306.708H324.439V305.11H330.967V306.708H332.599V310.04H329.301V306.776H326.105V308.408H324.507V318.064H326.105V319.662H330.899V318.064H332.599V319.73H330.967ZM347.176 318.132V319.73H345.544V321.362H339.016V319.73H337.384V318.132H335.786V308.34H337.384V306.708H339.016V305.11H345.544V306.708H347.176V308.34H348.808V313.27H339.084V318.064H340.682V319.662H345.476V318.064H347.108V316.432H348.808V318.132H347.176ZM345.476 308.408H343.878V306.776H340.682V308.408H339.084V311.57H345.476V308.408ZM361.645 321.362V319.73H360.115V321.362H355.185V319.73H353.553V318.132H351.955V308.34H353.553V306.708H355.185V305.11H360.115V306.708H361.645V301.948H360.047V300.248H361.645V298.616H364.977V319.662H366.575V321.362H361.645ZM361.645 308.408H360.047V306.776H356.851V308.408H355.253V318.064H356.851V319.662H360.047V318.064H361.645V308.408ZM392.536 318.132V319.73H390.904V321.362H385.974V319.73H384.41V324.524H386.042V326.224H379.514V324.524H381.112V308.408H379.514V306.708H381.112V305.11H384.41V306.708H385.974V305.11H390.904V306.708H392.536V308.34H394.134V318.132H392.536ZM390.836 308.408H389.204V306.776H386.042V308.408H384.41V318.064H386.042V319.662H389.204V318.064H390.836V308.408ZM403.872 308.408V310.04H402.24V319.662H403.872V321.362H397.344V319.662H398.942V308.408H397.344V306.708H398.942V305.11H402.24V308.34H403.804V306.708H405.436V305.11H408.734V308.408H403.872ZM423.315 316.5V319.73H420.051V321.362H415.155V319.73H411.891V316.5H410.293V309.972H411.891V306.708H415.155V305.11H420.051V306.708H423.315V309.972H424.913V316.5H423.315ZM421.615 310.04H419.983V306.776H415.189V310.04H413.591V316.432H415.189V319.662H419.983V316.432H421.615V310.04ZM436.215 301.948V300.316H433.019V305.11H436.283V306.776H433.019V319.662H434.651V321.362H428.123V319.662H429.721V306.776H428.123V305.11H429.721V301.88H431.353V300.248H432.985V298.616H437.881V301.948H436.215ZM450.836 318.132V319.73H449.204V321.362H442.676V319.73H441.044V318.132H439.446V308.34H441.044V306.708H442.676V305.11H449.204V306.708H450.836V308.34H452.468V313.27H442.744V318.064H444.342V319.662H449.136V318.064H450.768V316.432H452.468V318.132H450.836ZM449.136 308.408H447.538V306.776H444.342V308.408H442.744V311.57H449.136V308.408ZM463.776 319.73V321.362H455.616V318.064H457.282V319.662H462.076V316.5H460.478V314.868H458.846V313.27H457.214V311.638H455.616V306.708H457.214V305.11H465.374V308.408H463.708V306.776H458.914V309.972H460.512V311.57H462.144V313.202H463.776V314.834H465.374V319.73H463.776ZM476.725 319.73V321.362H468.565V318.064H470.231V319.662H475.025V316.5H473.427V314.868H471.795V313.27H470.163V311.638H468.565V306.708H470.163V305.11H478.323V308.408H476.657V306.776H471.863V309.972H473.461V311.57H475.093V313.202H476.725V314.834H478.323V319.73H476.725ZM483.112 301.948V298.616H486.41V301.948H483.112ZM481.514 321.362V319.662H483.112V308.408H481.514V306.708H483.112V305.11H486.41V319.662H488.042V321.362H481.514ZM504.265 316.5V319.73H501.001V321.362H496.105V319.73H492.841V316.5H491.243V309.972H492.841V306.708H496.105V305.11H501.001V306.708H504.265V309.972H505.863V316.5H504.265ZM502.565 310.04H500.933V306.776H496.139V310.04H494.541V316.432H496.139V319.662H500.933V316.432H502.565V310.04ZM518.763 321.362V319.662H520.395V308.408H518.763V306.776H517.233V308.408H515.601V310.04H513.969V319.662H515.601V321.362H509.073V319.662H510.671V308.408H509.073V306.708H510.671V305.11H513.969V308.34H515.533V306.708H517.165V305.11H522.095V306.708H523.693V319.662H525.325V321.362H518.763ZM539.818 321.362V319.73H538.254V321.362H530.094V319.73H528.496V314.834H530.094V313.202H533.358V311.57H538.186V306.776H533.392V308.408H531.794V310.04H530.094V306.708H533.358V305.11H539.886V306.708H541.518V319.662H543.116V321.362H539.818ZM538.186 313.27H533.392V314.868H531.794V319.662H536.588V318.064H538.186V313.27ZM546.327 321.362V319.662H547.925V301.948H546.327V300.248H547.925V298.616H551.223V319.662H552.855V321.362H546.327ZM573.876 301.948V300.316H570.68V305.11H573.944V306.776H570.68V319.662H572.312V321.362H565.784V319.662H567.382V306.776H565.784V305.11H567.382V301.88H569.014V300.248H570.646V298.616H575.542V301.948H573.876ZM583.634 308.408V310.04H582.002V319.662H583.634V321.362H577.106V319.662H578.704V308.408H577.106V306.708H578.704V305.11H582.002V308.34H583.566V306.708H585.198V305.11H588.496V308.408H583.634ZM603.077 316.5V319.73H599.813V321.362H594.917V319.73H591.653V316.5H590.055V309.972H591.653V306.708H594.917V305.11H599.813V306.708H603.077V309.972H604.675V316.5H603.077ZM601.377 310.04H599.745V306.776H594.951V310.04H593.353V316.432H594.951V319.662H599.745V316.432H601.377V310.04ZM624.069 321.362V319.662H625.667V308.408H624.069V306.776H622.505V308.408H620.907V319.662H622.505V321.362H615.977V319.662H617.575V308.408H615.977V306.776H614.413V308.408H612.781V319.662H614.413V321.362H607.885V319.662H609.483V308.408H607.885V306.708H609.483V305.11H612.781V306.708H614.345V305.11H619.275V306.708H622.437V305.11H627.367V306.708H628.999V319.662H630.597V321.362H624.069ZM653.202 321.362V319.73H651.672V321.362H646.742V319.73H645.11V318.132H643.512V308.34H645.11V306.708H646.742V305.11H651.672V306.708H653.202V301.948H651.604V300.248H653.202V298.616H656.534V319.662H658.132V321.362H653.202ZM653.202 308.408H651.604V306.776H648.408V308.408H646.81V318.064H648.408V319.662H651.604V318.064H653.202V308.408ZM662.94 301.948V298.616H666.238V301.948H662.94ZM661.342 321.362V319.662H662.94V308.408H661.342V306.708H662.94V305.11H666.238V319.662H667.87V321.362H661.342ZM682.461 306.776V310.04H680.829V314.868H679.231V318.132H677.599V321.362H675.933V318.132H674.301V314.868H672.669V310.04H671.071V306.776H669.439V305.11H675.967V306.776H674.369V309.972H675.967V314.834H679.163V309.972H680.761V306.776H679.163V305.11H684.093V306.776H682.461ZM697.037 318.132V319.73H695.405V321.362H688.877V319.73H687.245V318.132H685.647V308.34H687.245V306.708H688.877V305.11H695.405V306.708H697.037V308.34H698.669V313.27H688.945V318.064H690.543V319.662H695.337V318.064H696.969V316.432H698.669V318.132H697.037ZM695.337 308.408H693.739V306.776H690.543V308.408H688.945V311.57H695.337V308.408ZM708.345 308.408V310.04H706.713V319.662H708.345V321.362H701.817V319.662H703.415V308.408H701.817V306.708H703.415V305.11H706.713V308.34H708.277V306.708H709.909V305.11H713.207V308.408H708.345ZM722.926 319.73V321.362H714.766V318.064H716.432V319.662H721.226V316.5H719.628V314.868H717.996V313.27H716.364V311.638H714.766V306.708H716.364V305.11H724.524V308.408H722.858V306.776H718.064V309.972H719.662V311.57H721.294V313.202H722.926V314.834H724.524V319.73H722.926ZM739.105 318.132V319.73H737.473V321.362H730.945V319.73H729.313V318.132H727.715V308.34H729.313V306.708H730.945V305.11H737.473V306.708H739.105V308.34H740.737V313.27H731.013V318.064H732.611V319.662H737.405V318.064H739.037V316.432H740.737V318.132H739.105ZM737.405 308.408H735.807V306.776H732.611V308.408H731.013V311.57H737.405V308.408ZM209.62 363.132V364.73H207.988V366.362H201.46V364.73H199.896V366.362H198.196V346.948H196.598V345.248H198.196V343.616H201.494V351.708H203.058V350.11H207.988V351.708H209.62V353.34H211.218V363.132H209.62ZM207.92 353.408H206.288V351.776H203.126V353.408H201.494V364.662H206.288V363.064H207.92V353.408ZM225.75 366.362V364.73H224.186V366.362H216.026V364.73H214.428V359.834H216.026V358.202H219.29V356.57H224.118V351.776H219.324V353.408H217.726V355.04H216.026V351.708H219.29V350.11H225.818V351.708H227.45V364.662H229.048V366.362H225.75ZM224.118 358.27H219.324V359.868H217.726V364.662H222.52V363.064H224.118V358.27ZM242.016 364.73V366.362H235.488V364.73H233.856V363.132H232.258V353.34H233.856V351.708H235.488V350.11H242.016V351.708H243.648V355.04H240.35V351.776H237.154V353.408H235.556V363.064H237.154V364.662H241.948V363.064H243.648V364.73H242.016ZM258.156 366.362V364.73H256.524V363.132H254.926V361.5H253.294V359.868H251.73V364.662H253.362V366.362H246.834V364.662H248.432V346.948H246.834V345.248H248.432V343.616H251.73V356.57H253.294V354.972H254.926V353.34H256.524V351.776H254.926V350.11H259.856V351.776H258.224V353.408H256.592V355.04H254.994V356.638H253.362V358.202H254.994V359.834H256.592V361.432H258.224V363.064H259.856V364.662H261.454V366.362H258.156ZM276.054 351.776V353.34H277.686V356.638H276.054V358.27H274.422V359.868H269.56V361.432H276.054V363.064H277.686V367.994H276.054V369.592H274.422V371.224H266.262V369.592H264.664V366.294H266.262V364.662H267.894V363.132H266.262V359.834H267.894V358.27H266.262V356.638H264.664V353.34H266.262V351.708H267.894V350.11H274.422V351.708H275.986V350.11H279.284V351.776H276.054ZM274.354 353.408H272.756V351.776H269.56V353.408H267.962V356.57H269.56V358.202H272.756V356.57H274.354V353.408ZM275.986 364.73H267.962V366.362H266.33V367.926H267.962V369.524H274.354V367.926H275.986V364.73ZM287.362 353.408V355.04H285.73V364.662H287.362V366.362H280.834V364.662H282.432V353.408H280.834V351.708H282.432V350.11H285.73V353.34H287.294V351.708H288.926V350.11H292.224V353.408H287.362ZM306.806 361.5V364.73H303.542V366.362H298.646V364.73H295.382V361.5H293.784V354.972H295.382V351.708H298.646V350.11H303.542V351.708H306.806V354.972H308.404V361.5H306.806ZM305.106 355.04H303.474V351.776H298.68V355.04H297.082V361.432H298.68V364.662H303.474V361.432H305.106V355.04ZM324.568 366.362V364.73H321.372V366.362H314.844V364.73H313.212V353.408H311.614V351.708H313.212V350.11H316.51V363.064H318.142V364.662H321.304V363.064H322.936V353.408H321.304V351.708H322.936V350.11H326.234V364.662H327.866V366.362H324.568ZM340.727 366.362V364.662H342.359V353.408H340.727V351.776H339.197V353.408H337.565V355.04H335.933V364.662H337.565V366.362H331.037V364.662H332.635V353.408H331.037V351.708H332.635V350.11H335.933V353.34H337.497V351.708H339.129V350.11H344.059V351.708H345.657V364.662H347.289V366.362H340.727ZM360.151 366.362V364.73H358.621V366.362H353.691V364.73H352.059V363.132H350.461V353.34H352.059V351.708H353.691V350.11H358.621V351.708H360.151V346.948H358.553V345.248H360.151V343.616H363.483V364.662H365.081V366.362H360.151ZM360.151 353.408H358.553V351.776H355.357V353.408H353.759V363.064H355.357V364.662H358.553V363.064H360.151V353.408ZM376.451 364.73V366.362H368.291V363.064H369.957V364.662H374.751V361.5H373.153V359.868H371.521V358.27H369.889V356.638H368.291V351.708H369.889V350.11H378.049V353.408H376.383V351.776H371.589V354.972H373.187V356.57H374.819V358.202H376.451V359.834H378.049V364.73H376.451ZM402.291 366.362V364.73H400.727V366.362H392.567V364.73H390.969V359.834H392.567V358.202H395.831V356.57H400.659V351.776H395.865V353.408H394.267V355.04H392.567V351.708H395.831V350.11H402.359V351.708H403.991V364.662H405.589V366.362H402.291ZM400.659 358.27H395.865V359.868H394.267V364.662H399.061V363.064H400.659V358.27ZM418.489 366.362V364.662H420.121V353.408H418.489V351.776H416.959V353.408H415.327V355.04H413.695V364.662H415.327V366.362H408.799V364.662H410.397V353.408H408.799V351.708H410.397V350.11H413.695V353.34H415.259V351.708H416.891V350.11H421.821V351.708H423.419V364.662H425.051V366.362H418.489ZM437.913 366.362V364.73H436.383V366.362H431.453V364.73H429.821V363.132H428.223V353.34H429.821V351.708H431.453V350.11H436.383V351.708H437.913V346.948H436.315V345.248H437.913V343.616H441.245V364.662H442.843V366.362H437.913ZM437.913 353.408H436.315V351.776H433.119V353.408H431.521V363.064H433.119V364.662H436.315V363.064H437.913V353.408ZM465.54 364.73V366.362H459.012V364.73H457.38V363.132H455.782V353.34H457.38V351.708H459.012V350.11H465.54V351.708H467.172V355.04H463.874V351.776H460.678V353.408H459.08V363.064H460.678V364.662H465.472V363.064H467.172V364.73H465.54ZM481.68 366.362V364.73H480.116V366.362H471.956V364.73H470.358V359.834H471.956V358.202H475.22V356.57H480.048V351.776H475.254V353.408H473.656V355.04H471.956V351.708H475.22V350.11H481.748V351.708H483.38V364.662H484.978V366.362H481.68ZM480.048 358.27H475.254V359.868H473.656V364.662H478.45V363.064H480.048V358.27ZM494.716 353.408V355.04H493.084V364.662H494.716V366.362H488.188V364.662H489.786V353.408H488.188V351.708H489.786V350.11H493.084V353.34H494.648V351.708H496.28V350.11H499.578V353.408H494.716ZM512.527 363.132V364.73H510.895V366.362H504.367V364.73H502.735V363.132H501.137V353.34H502.735V351.708H504.367V350.11H510.895V351.708H512.527V353.34H514.159V358.27H504.435V363.064H506.033V364.662H510.827V363.064H512.459V361.432H514.159V363.132H512.527ZM510.827 353.408H509.229V351.776H506.033V353.408H504.435V356.57H510.827V353.408ZM528.697 363.132V364.73H527.065V366.362H520.537V364.73H518.905V363.132H517.307V353.34H518.905V351.708H520.537V350.11H527.065V351.708H528.697V353.34H530.329V358.27H520.605V363.064H522.203V364.662H526.997V363.064H528.629V361.432H530.329V363.132H528.697ZM526.997 353.408H525.399V351.776H522.203V353.408H520.605V356.57H526.997V353.408ZM540.005 353.408V355.04H538.373V364.662H540.005V366.362H533.477V364.662H535.075V353.408H533.477V351.708H535.075V350.11H538.373V353.34H539.937V351.708H541.569V350.11H544.867V353.408H540.005ZM569.177 363.132V364.73H567.545V366.362H562.615V364.73H561.051V369.524H562.683V371.224H556.155V369.524H557.753V353.408H556.155V351.708H557.753V350.11H561.051V351.708H562.615V350.11H567.545V351.708H569.177V353.34H570.775V363.132H569.177ZM567.477 353.408H565.845V351.776H562.683V353.408H561.051V363.064H562.683V364.662H565.845V363.064H567.477V353.408ZM585.307 366.362V364.73H583.743V366.362H575.583V364.73H573.985V359.834H575.583V358.202H578.847V356.57H583.675V351.776H578.881V353.408H577.283V355.04H575.583V351.708H578.847V350.11H585.375V351.708H587.007V364.662H588.605V366.362H585.307ZM583.675 358.27H578.881V359.868H577.283V364.662H582.077V363.064H583.675V358.27ZM595.045 366.362V364.73H593.413V351.776H591.815V350.11H593.413V348.478H595.045V346.88H596.711V350.11H599.975V351.776H596.711V364.662H599.975V366.362H595.045ZM612.827 366.362V364.662H614.459V353.408H612.827V351.776H611.297V353.408H609.665V355.04H608.033V364.662H609.665V366.362H603.137V364.662H604.735V346.948H603.137V345.248H604.735V343.616H608.033V353.34H609.597V351.708H611.229V350.11H616.159V351.708H617.757V364.662H619.389V366.362H612.827ZM630.721 364.73V366.362H622.561V363.064H624.227V364.662H629.021V361.5H627.423V359.868H625.791V358.27H624.159V356.638H622.561V351.708H624.159V350.11H632.319V353.408H630.653V351.776H625.859V354.972H627.457V356.57H629.089V358.202H630.721V359.834H632.319V364.73H630.721ZM635.51 366.362V363.064H638.808V366.362H635.51ZM664.662 346.948V345.316H658.236V353.34H663.03V351.708H664.73V356.638H663.03V355.04H658.236V364.662H659.868V366.362H653.34V364.662H654.938V345.316H653.34V343.616H666.362V346.948H664.662ZM680.938 361.5V364.73H677.674V366.362H672.778V364.73H669.514V361.5H667.916V354.972H669.514V351.708H672.778V350.11H677.674V351.708H680.938V354.972H682.536V361.5H680.938ZM679.238 355.04H677.606V351.776H672.812V355.04H671.214V361.432H672.812V364.662H677.606V361.432H679.238V355.04ZM692.274 353.408V355.04H690.642V364.662H692.274V366.362H685.746V364.662H687.344V353.408H685.746V351.708H687.344V350.11H690.642V353.34H692.206V351.708H693.838V350.11H697.136V353.408H692.274ZM710.086 363.132V364.73H708.454V366.362H701.926V364.73H700.294V363.132H698.696V353.34H700.294V351.708H701.926V350.11H708.454V351.708H710.086V353.34H711.718V358.27H701.994V363.064H703.592V364.662H708.386V363.064H710.018V361.432H711.718V363.132H710.086ZM708.386 353.408H706.788V351.776H703.592V353.408H701.994V356.57H708.386V353.408ZM723.026 364.73V366.362H714.866V363.064H716.532V364.662H721.326V361.5H719.728V359.868H718.096V358.27H716.464V356.638H714.866V351.708H716.464V350.11H724.624V353.408H722.958V351.776H718.164V354.972H719.762V356.57H721.394V358.202H723.026V359.834H724.624V364.73H723.026ZM729.413 346.948V343.616H732.711V346.948H729.413ZM727.815 366.362V364.662H729.413V353.408H727.815V351.708H729.413V350.11H732.711V364.662H734.343V366.362H727.815ZM748.933 351.776V353.34H750.565V356.638H748.933V358.27H747.301V359.868H742.439V361.432H748.933V363.064H750.565V367.994H748.933V369.592H747.301V371.224H739.141V369.592H737.543V366.294H739.141V364.662H740.773V363.132H739.141V359.834H740.773V358.27H739.141V356.638H737.543V353.34H739.141V351.708H740.773V350.11H747.301V351.708H748.865V350.11H752.163V351.776H748.933ZM747.233 353.408H745.635V351.776H742.439V353.408H740.841V356.57H742.439V358.202H745.635V356.57H747.233V353.408ZM748.865 364.73H740.841V366.362H739.209V367.926H740.841V369.524H747.233V367.926H748.865V364.73ZM763.403 366.362V364.662H765.035V353.408H763.403V351.776H761.873V353.408H760.241V355.04H758.609V364.662H760.241V366.362H753.713V364.662H755.311V346.948H753.713V345.248H755.311V343.616H758.609V353.34H760.173V351.708H761.805V350.11H766.735V351.708H768.333V364.662H769.965V366.362H763.403ZM776.367 366.362V364.73H774.735V351.776H773.137V350.11H774.735V348.478H776.367V346.88H778.033V350.11H781.297V351.776H778.033V364.662H781.297V366.362H776.367ZM198.196 391.948V388.616H201.494V391.948H198.196ZM196.598 411.362V409.662H198.196V398.408H196.598V396.708H198.196V395.11H201.494V409.662H203.126V411.362H196.598ZM216.017 411.362V409.662H217.649V398.408H216.017V396.776H214.487V398.408H212.855V400.04H211.223V409.662H212.855V411.362H206.327V409.662H207.925V398.408H206.327V396.708H207.925V395.11H211.223V398.34H212.787V396.708H214.419V395.11H219.349V396.708H220.947V409.662H222.579V411.362H216.017ZM235.44 411.362V409.73H233.91V411.362H228.98V409.73H227.348V408.132H225.75V398.34H227.348V396.708H228.98V395.11H233.91V396.708H235.44V391.948H233.842V390.248H235.44V388.616H238.772V409.662H240.37V411.362H235.44ZM235.44 398.408H233.842V396.776H230.646V398.408H229.048V408.064H230.646V409.662H233.842V408.064H235.44V398.408ZM254.97 408.132V409.73H253.338V411.362H246.81V409.73H245.178V408.132H243.58V398.34H245.178V396.708H246.81V395.11H253.338V396.708H254.97V398.34H256.602V403.27H246.878V408.064H248.476V409.662H253.27V408.064H254.902V406.432H256.602V408.132H254.97ZM253.27 398.408H251.672V396.776H248.476V398.408H246.878V401.57H253.27V398.408ZM269.44 411.362V409.662H271.072V398.408H269.44V396.776H267.91V398.408H266.278V400.04H264.646V409.662H266.278V411.362H259.75V409.662H261.348V398.408H259.75V396.708H261.348V395.11H264.646V398.34H266.21V396.708H267.842V395.11H272.772V396.708H274.37V409.662H276.002V411.362H269.44ZM282.404 411.362V409.73H280.772V396.776H279.174V395.11H280.772V393.478H282.404V391.88H284.07V395.11H287.334V396.776H284.07V409.662H287.334V411.362H282.404ZM298.656 409.73V411.362H290.496V408.064H292.162V409.662H296.956V406.5H295.358V404.868H293.726V403.27H292.094V401.638H290.496V396.708H292.094V395.11H300.254V398.408H298.588V396.776H293.794V399.972H295.392V401.57H297.024V403.202H298.656V404.834H300.254V409.73H298.656ZM316.404 411.362V409.73H314.772V396.776H313.174V395.11H314.772V393.478H316.404V391.88H318.07V395.11H321.334V396.776H318.07V409.662H321.334V411.362H316.404ZM337.518 406.5V409.73H334.254V411.362H329.358V409.73H326.094V406.5H324.496V399.972H326.094V396.708H329.358V395.11H334.254V396.708H337.518V399.972H339.116V406.5H337.518ZM335.818 400.04H334.186V396.776H329.392V400.04H327.794V406.432H329.392V409.662H334.186V406.432H335.818V400.04ZM360.215 409.73V411.362H352.055V408.064H353.721V409.662H358.515V406.5H356.917V404.868H355.285V403.27H353.653V401.638H352.055V396.708H353.653V395.11H361.813V398.408H360.147V396.776H355.353V399.972H356.951V401.57H358.583V403.202H360.215V404.834H361.813V409.73H360.215ZM368.234 411.362V409.73H366.602V396.776H365.004V395.11H366.602V393.478H368.234V391.88H369.9V395.11H373.164V396.776H369.9V409.662H373.164V411.362H368.234ZM382.855 398.408V400.04H381.223V409.662H382.855V411.362H376.327V409.662H377.925V398.408H376.327V396.708H377.925V395.11H381.223V398.34H382.787V396.708H384.419V395.11H387.717V398.408H382.855ZM400.666 408.132V409.73H399.034V411.362H392.506V409.73H390.874V408.132H389.276V398.34H390.874V396.708H392.506V395.11H399.034V396.708H400.666V398.34H402.298V403.27H392.574V408.064H394.172V409.662H398.966V408.064H400.598V406.432H402.298V408.132H400.666ZM398.966 398.408H397.368V396.776H394.172V398.408H392.574V401.57H398.966V398.408ZM415.136 411.362V409.662H416.768V398.408H415.136V396.776H413.606V398.408H411.974V400.04H410.342V409.662H411.974V411.362H405.446V409.662H407.044V398.408H405.446V396.708H407.044V395.11H410.342V398.34H411.906V396.708H413.538V395.11H418.468V396.708H420.066V409.662H421.698V411.362H415.136ZM436.259 396.776V398.34H437.891V401.638H436.259V403.27H434.627V404.868H429.765V406.432H436.259V408.064H437.891V412.994H436.259V414.592H434.627V416.224H426.467V414.592H424.869V411.294H426.467V409.662H428.099V408.132H426.467V404.834H428.099V403.27H426.467V401.638H424.869V398.34H426.467V396.708H428.099V395.11H434.627V396.708H436.191V395.11H439.489V396.776H436.259ZM434.559 398.408H432.961V396.776H429.765V398.408H428.167V401.57H429.765V403.202H432.961V401.57H434.559V398.408ZM436.191 409.73H428.167V411.362H426.535V412.926H428.167V414.524H434.559V412.926H436.191V409.73ZM444.269 411.362V409.73H442.637V396.776H441.039V395.11H442.637V393.478H444.269V391.88H445.935V395.11H449.199V396.776H445.935V409.662H449.199V411.362H444.269ZM462.052 411.362V409.662H463.684V398.408H462.052V396.776H460.522V398.408H458.89V400.04H457.258V409.662H458.89V411.362H452.362V409.662H453.96V391.948H452.362V390.248H453.96V388.616H457.258V398.34H458.822V396.708H460.454V395.11H465.384V396.708H466.982V409.662H468.614V411.362H462.052ZM483.176 408.132V409.73H481.544V411.362H475.016V409.73H473.384V408.132H471.786V398.34H473.384V396.708H475.016V395.11H481.544V396.708H483.176V398.34H484.808V403.27H475.084V408.064H476.682V409.662H481.476V408.064H483.108V406.432H484.808V408.132H483.176ZM481.476 398.408H479.878V396.776H476.682V398.408H475.084V401.57H481.476V398.408ZM497.645 411.362V409.662H499.277V398.408H497.645V396.776H496.115V398.408H494.483V400.04H492.851V409.662H494.483V411.362H487.955V409.662H489.553V398.408H487.955V396.708H489.553V395.11H492.851V398.34H494.415V396.708H496.047V395.11H500.977V396.708H502.575V409.662H504.207V411.362H497.645ZM528.498 396.776V400.04H526.866V404.868H525.268V408.132H523.636V412.994H522.004V416.224H518.706V412.926H521.97V408.132H520.338V404.868H518.706V400.04H517.108V396.776H515.476V395.11H522.004V396.776H520.406V399.972H522.004V404.834H525.2V399.972H526.798V396.776H525.2V395.11H530.13V396.776H528.498ZM544.706 406.5V409.73H541.442V411.362H536.546V409.73H533.282V406.5H531.684V399.972H533.282V396.708H536.546V395.11H541.442V396.708H544.706V399.972H546.304V406.5H544.706ZM543.006 400.04H541.374V396.776H536.58V400.04H534.982V406.432H536.58V409.662H541.374V406.432H543.006V400.04ZM562.468 411.362V409.73H559.272V411.362H552.744V409.73H551.112V398.408H549.514V396.708H551.112V395.11H554.41V408.064H556.042V409.662H559.204V408.064H560.836V398.408H559.204V396.708H560.836V395.11H564.134V409.662H565.766V411.362H562.468ZM575.466 398.408V400.04H573.834V409.662H575.466V411.362H568.938V409.662H570.536V398.408H568.938V396.708H570.536V395.11H573.834V398.34H575.398V396.708H577.03V395.11H580.328V398.408H575.466ZM604.57 411.362V409.73H601.374V411.362H594.846V409.73H593.214V398.408H591.616V396.708H593.214V395.11H596.512V408.064H598.144V409.662H601.306V408.064H602.938V398.408H601.306V396.708H602.938V395.11H606.236V409.662H607.868V411.362H604.57ZM620.729 411.362V409.662H622.361V398.408H620.729V396.776H619.199V398.408H617.567V400.04H615.935V409.662H617.567V411.362H611.039V409.662H612.637V398.408H611.039V396.708H612.637V395.11H615.935V398.34H617.499V396.708H619.131V395.11H624.061V396.708H625.659V409.662H627.291V411.362H620.729ZM640.153 411.362V409.73H638.623V411.362H633.693V409.73H632.061V408.132H630.463V398.34H632.061V396.708H633.693V395.11H638.623V396.708H640.153V391.948H638.555V390.248H640.153V388.616H643.485V409.662H645.083V411.362H640.153ZM640.153 398.408H638.555V396.776H635.359V398.408H633.761V408.064H635.359V409.662H638.555V408.064H640.153V398.408ZM659.683 408.132V409.73H658.051V411.362H651.523V409.73H649.891V408.132H648.293V398.34H649.891V396.708H651.523V395.11H658.051V396.708H659.683V398.34H661.315V403.27H651.591V408.064H653.189V409.662H657.983V408.064H659.615V406.432H661.315V408.132H659.683ZM657.983 398.408H656.385V396.776H653.189V398.408H651.591V401.57H657.983V398.408ZM670.991 398.408V400.04H669.359V409.662H670.991V411.362H664.463V409.662H666.061V398.408H664.463V396.708H666.061V395.11H669.359V398.34H670.923V396.708H672.555V395.11H675.853V398.408H670.991ZM685.572 409.73V411.362H677.412V408.064H679.078V409.662H683.872V406.5H682.274V404.868H680.642V403.27H679.01V401.638H677.412V396.708H679.01V395.11H687.17V398.408H685.504V396.776H680.71V399.972H682.308V401.57H683.94V403.202H685.572V404.834H687.17V409.73H685.572ZM693.592 411.362V409.73H691.96V396.776H690.362V395.11H691.96V393.478H693.592V391.88H695.258V395.11H698.522V396.776H695.258V409.662H698.522V411.362H693.592ZM713.006 411.362V409.73H711.442V411.362H703.282V409.73H701.684V404.834H703.282V403.202H706.546V401.57H711.374V396.776H706.58V398.408H704.982V400.04H703.282V396.708H706.546V395.11H713.074V396.708H714.706V409.662H716.304V411.362H713.006ZM711.374 403.27H706.58V404.868H704.982V409.662H709.776V408.064H711.374V403.27ZM729.204 411.362V409.662H730.836V398.408H729.204V396.776H727.674V398.408H726.042V400.04H724.41V409.662H726.042V411.362H719.514V409.662H721.112V398.408H719.514V396.708H721.112V395.11H724.41V398.34H725.974V396.708H727.606V395.11H732.536V396.708H734.134V409.662H735.766V411.362H729.204ZM748.628 411.362V409.73H747.098V411.362H742.168V409.73H740.536V408.132H738.938V398.34H740.536V396.708H742.168V395.11H747.098V396.708H748.628V391.948H747.03V390.248H748.628V388.616H751.96V409.662H753.558V411.362H748.628ZM748.628 398.408H747.03V396.776H743.834V398.408H742.236V408.064H743.834V409.662H747.03V408.064H748.628V398.408ZM758.366 391.948V388.616H761.664V391.948H758.366ZM756.768 411.362V409.662H758.366V398.408H756.768V396.708H758.366V395.11H761.664V409.662H763.296V411.362H756.768ZM776.186 411.362V409.662H777.818V398.408H776.186V396.776H774.656V398.408H773.024V400.04H771.392V409.662H773.024V411.362H766.496V409.662H768.094V398.408H766.496V396.708H768.094V395.11H771.392V398.34H772.956V396.708H774.588V395.11H779.518V396.708H781.116V409.662H782.748V411.362H776.186ZM797.31 396.776V398.34H798.942V401.638H797.31V403.27H795.678V404.868H790.816V406.432H797.31V408.064H798.942V412.994H797.31V414.592H795.678V416.224H787.518V414.592H785.92V411.294H787.518V409.662H789.15V408.132H787.518V404.834H789.15V403.27H787.518V401.638H785.92V398.34H787.518V396.708H789.15V395.11H795.678V396.708H797.242V395.11H800.54V396.776H797.31ZM795.61 398.408H794.012V396.776H790.816V398.408H789.218V401.57H790.816V403.202H794.012V401.57H795.61V398.408ZM797.242 409.73H789.218V411.362H787.586V412.926H789.218V414.524H795.61V412.926H797.242V409.73ZM209.62 451.5V454.73H206.356V456.362H201.46V454.73H198.196V451.5H196.598V444.972H198.196V441.708H201.46V440.11H206.356V441.708H209.62V444.972H211.218V451.5H209.62ZM207.92 445.04H206.288V441.776H201.494V445.04H199.896V451.432H201.494V454.662H206.288V451.432H207.92V445.04ZM222.52 436.948V435.316H219.324V440.11H222.588V441.776H219.324V454.662H220.956V456.362H214.428V454.662H216.026V441.776H214.428V440.11H216.026V436.88H217.658V435.248H219.29V433.616H224.186V436.948H222.52ZM246.869 441.776V445.04H245.237V449.868H243.639V453.132H242.007V457.994H240.375V461.224H237.077V457.926H240.341V453.132H238.709V449.868H237.077V445.04H235.479V441.776H233.847V440.11H240.375V441.776H238.777V444.972H240.375V449.834H243.571V444.972H245.169V441.776H243.571V440.11H248.501V441.776H246.869ZM263.077 451.5V454.73H259.813V456.362H254.917V454.73H251.653V451.5H250.055V444.972H251.653V441.708H254.917V440.11H259.813V441.708H263.077V444.972H264.675V451.5H263.077ZM261.377 445.04H259.745V441.776H254.951V445.04H253.353V451.432H254.951V454.662H259.745V451.432H261.377V445.04ZM280.839 456.362V454.73H277.643V456.362H271.115V454.73H269.483V443.408H267.885V441.708H269.483V440.11H272.781V453.064H274.413V454.662H277.575V453.064H279.207V443.408H277.575V441.708H279.207V440.11H282.505V454.662H284.137V456.362H280.839ZM293.837 443.408V445.04H292.205V454.662H293.837V456.362H287.309V454.662H288.907V443.408H287.309V441.708H288.907V440.11H292.205V443.34H293.769V441.708H295.401V440.11H298.699V443.408H293.837ZM319.745 454.73V456.362H313.217V454.73H311.585V453.132H309.987V443.34H311.585V441.708H313.217V440.11H319.745V441.708H321.377V445.04H318.079V441.776H314.883V443.408H313.285V453.064H314.883V454.662H319.677V453.064H321.377V454.73H319.745ZM335.885 456.362V454.73H334.321V456.362H326.161V454.73H324.563V449.834H326.161V448.202H329.425V446.57H334.253V441.776H329.459V443.408H327.861V445.04H326.161V441.708H329.425V440.11H335.953V441.708H337.585V454.662H339.183V456.362H335.885ZM334.253 448.27H329.459V449.868H327.861V454.662H332.655V453.064H334.253V448.27ZM348.921 443.408V445.04H347.289V454.662H348.921V456.362H342.393V454.662H343.991V443.408H342.393V441.708H343.991V440.11H347.289V443.34H348.853V441.708H350.485V440.11H353.783V443.408H348.921ZM366.732 453.132V454.73H365.1V456.362H358.572V454.73H356.94V453.132H355.342V443.34H356.94V441.708H358.572V440.11H365.1V441.708H366.732V443.34H368.364V448.27H358.64V453.064H360.238V454.662H365.032V453.064H366.664V451.432H368.364V453.132H366.732ZM365.032 443.408H363.434V441.776H360.238V443.408H358.64V446.57H365.032V443.408ZM382.902 453.132V454.73H381.27V456.362H374.742V454.73H373.11V453.132H371.512V443.34H373.11V441.708H374.742V440.11H381.27V441.708H382.902V443.34H384.534V448.27H374.81V453.064H376.408V454.662H381.202V453.064H382.834V451.432H384.534V453.132H382.902ZM381.202 443.408H379.604V441.776H376.408V443.408H374.81V446.57H381.202V443.408ZM394.21 443.408V445.04H392.578V454.662H394.21V456.362H387.682V454.662H389.28V443.408H387.682V441.708H389.28V440.11H392.578V443.34H394.142V441.708H395.774V440.11H399.072V443.408H394.21ZM421.682 456.362V454.73H420.118V456.362H411.958V454.73H410.36V449.834H411.958V448.202H415.222V446.57H420.05V441.776H415.256V443.408H413.658V445.04H411.958V441.708H415.222V440.11H421.75V441.708H423.382V454.662H424.98V456.362H421.682ZM420.05 448.27H415.256V449.868H413.658V454.662H418.452V453.064H420.05V448.27ZM437.88 456.362V454.662H439.512V443.408H437.88V441.776H436.35V443.408H434.718V445.04H433.086V454.662H434.718V456.362H428.19V454.662H429.788V443.408H428.19V441.708H429.788V440.11H433.086V443.34H434.65V441.708H436.282V440.11H441.212V441.708H442.81V454.662H444.442V456.362H437.88ZM457.304 456.362V454.73H455.774V456.362H450.844V454.73H449.212V453.132H447.614V443.34H449.212V441.708H450.844V440.11H455.774V441.708H457.304V436.948H455.706V435.248H457.304V433.616H460.636V454.662H462.234V456.362H457.304ZM457.304 443.408H455.706V441.776H452.51V443.408H450.912V453.064H452.51V454.662H455.706V453.064H457.304V443.408ZM486.562 453.132V454.73H484.93V456.362H478.402V454.73H476.77V453.132H475.172V443.34H476.77V441.708H478.402V440.11H484.93V441.708H486.562V443.34H488.194V448.27H478.47V453.064H480.068V454.662H484.862V453.064H486.494V451.432H488.194V453.132H486.562ZM484.862 443.408H483.264V441.776H480.068V443.408H478.47V446.57H484.862V443.408ZM499.434 461.224V459.524H501.032V454.73H499.502V456.362H494.572V454.73H492.94V453.132H491.342V443.34H492.94V441.708H494.572V440.11H501.1V441.708H502.664V440.11H504.364V459.524H505.962V461.224H499.434ZM501.032 441.776H496.238V443.408H494.64V453.064H496.238V454.662H499.434V453.064H501.032V441.776ZM522.126 456.362V454.73H518.93V456.362H512.402V454.73H510.77V443.408H509.172V441.708H510.77V440.11H514.068V453.064H515.7V454.662H518.862V453.064H520.494V443.408H518.862V441.708H520.494V440.11H523.792V454.662H525.424V456.362H522.126ZM530.194 436.948V433.616H533.492V436.948H530.194ZM528.596 456.362V454.662H530.194V443.408H528.596V441.708H530.194V440.11H533.492V454.662H535.124V456.362H528.596ZM551.347 453.132V454.73H549.715V456.362H544.785V454.73H543.221V459.524H544.853V461.224H538.325V459.524H539.923V443.408H538.325V441.708H539.923V440.11H543.221V441.708H544.785V440.11H549.715V441.708H551.347V443.34H552.945V453.132H551.347ZM549.647 443.408H548.015V441.776H544.853V443.408H543.221V453.064H544.853V454.662H548.015V453.064H549.647V443.408ZM577.205 456.362V454.73H575.641V456.362H567.481V454.73H565.883V449.834H567.481V448.202H570.745V446.57H575.573V441.776H570.779V443.408H569.181V445.04H567.481V441.708H570.745V440.11H577.273V441.708H578.905V454.662H580.503V456.362H577.205ZM575.573 448.27H570.779V449.868H569.181V454.662H573.975V453.064H575.573V448.27ZM604.832 441.776V443.34H606.464V446.638H604.832V448.27H603.2V449.868H598.338V451.432H604.832V453.064H606.464V457.994H604.832V459.592H603.2V461.224H595.04V459.592H593.442V456.294H595.04V454.662H596.672V453.132H595.04V449.834H596.672V448.27H595.04V446.638H593.442V443.34H595.04V441.708H596.672V440.11H603.2V441.708H604.764V440.11H608.062V441.776H604.832ZM603.132 443.408H601.534V441.776H598.338V443.408H596.74V446.57H598.338V448.202H601.534V446.57H603.132V443.408ZM604.764 454.73H596.74V456.362H595.108V457.926H596.74V459.524H603.132V457.926H604.764V454.73ZM621.002 453.132V454.73H619.37V456.362H612.842V454.73H611.21V453.132H609.612V443.34H611.21V441.708H612.842V440.11H619.37V441.708H621.002V443.34H622.634V448.27H612.91V453.064H614.508V454.662H619.302V453.064H620.934V451.432H622.634V453.132H621.002ZM619.302 443.408H617.704V441.776H614.508V443.408H612.91V446.57H619.302V443.408ZM635.472 456.362V454.662H637.104V443.408H635.472V441.776H633.942V443.408H632.31V445.04H630.678V454.662H632.31V456.362H625.782V454.662H627.38V443.408H625.782V441.708H627.38V440.11H630.678V443.34H632.242V441.708H633.874V440.11H638.804V441.708H640.402V454.662H642.034V456.362H635.472ZM656.595 453.132V454.73H654.963V456.362H648.435V454.73H646.803V453.132H645.205V443.34H646.803V441.708H648.435V440.11H654.963V441.708H656.595V443.34H658.227V448.27H648.503V453.064H650.101V454.662H654.895V453.064H656.527V451.432H658.227V453.132H656.595ZM654.895 443.408H653.297V441.776H650.101V443.408H648.503V446.57H654.895V443.408ZM667.903 443.408V445.04H666.271V454.662H667.903V456.362H661.375V454.662H662.973V443.408H661.375V441.708H662.973V440.11H666.271V443.34H667.835V441.708H669.467V440.11H672.765V443.408H667.903ZM685.647 456.362V454.73H684.083V456.362H675.923V454.73H674.325V449.834H675.923V448.202H679.187V446.57H684.015V441.776H679.221V443.408H677.623V445.04H675.923V441.708H679.187V440.11H685.715V441.708H687.347V454.662H688.945V456.362H685.647ZM684.015 448.27H679.221V449.868H677.623V454.662H682.417V453.064H684.015V448.27ZM695.385 456.362V454.73H693.753V441.776H692.155V440.11H693.753V438.478H695.385V436.88H697.051V440.11H700.315V441.776H697.051V454.662H700.315V456.362H695.385ZM705.075 436.948V433.616H708.373V436.948H705.075ZM703.477 456.362V454.662H705.075V443.408H703.477V441.708H705.075V440.11H708.373V454.662H710.005V456.362H703.477ZM726.227 451.5V454.73H722.963V456.362H718.067V454.73H714.803V451.5H713.205V444.972H714.803V441.708H718.067V440.11H722.963V441.708H726.227V444.972H727.825V451.5H726.227ZM724.527 445.04H722.895V441.776H718.101V445.04H716.503V451.432H718.101V454.662H722.895V451.432H724.527V445.04ZM740.726 456.362V454.662H742.358V443.408H740.726V441.776H739.196V443.408H737.564V445.04H735.932V454.662H737.564V456.362H731.036V454.662H732.634V443.408H731.036V441.708H732.634V440.11H735.932V443.34H737.496V441.708H739.128V440.11H744.058V441.708H745.656V454.662H747.288V456.362H740.726ZM209.62 498.132V499.73H207.988V501.362H203.058V499.73H201.494V504.524H203.126V506.224H196.598V504.524H198.196V488.408H196.598V486.708H198.196V485.11H201.494V486.708H203.058V485.11H207.988V486.708H209.62V488.34H211.218V498.132H209.62ZM207.92 488.408H206.288V486.776H203.126V488.408H201.494V498.064H203.126V499.662H206.288V498.064H207.92V488.408ZM225.75 501.362V499.73H224.186V501.362H216.026V499.73H214.428V494.834H216.026V493.202H219.29V491.57H224.118V486.776H219.324V488.408H217.726V490.04H216.026V486.708H219.29V485.11H225.818V486.708H227.45V499.662H229.048V501.362H225.75ZM224.118 493.27H219.324V494.868H217.726V499.662H222.52V498.064H224.118V493.27ZM240.418 499.73V501.362H232.258V498.064H233.924V499.662H238.718V496.5H237.12V494.868H235.488V493.27H233.856V491.638H232.258V486.708H233.856V485.11H242.016V488.408H240.35V486.776H235.556V489.972H237.154V491.57H238.786V493.202H240.418V494.834H242.016V499.73H240.418ZM253.367 499.73V501.362H245.207V498.064H246.873V499.662H251.667V496.5H250.069V494.868H248.437V493.27H246.805V491.638H245.207V486.708H246.805V485.11H254.965V488.408H253.299V486.776H248.505V489.972H250.103V491.57H251.735V493.202H253.367V494.834H254.965V499.73H253.367ZM259.755 481.948V478.616H263.053V481.948H259.755ZM258.157 501.362V499.662H259.755V488.408H258.157V486.708H259.755V485.11H263.053V499.662H264.685V501.362H258.157ZM280.907 496.5V499.73H277.643V501.362H272.747V499.73H269.483V496.5H267.885V489.972H269.483V486.708H272.747V485.11H277.643V486.708H280.907V489.972H282.505V496.5H280.907ZM279.207 490.04H277.575V486.776H272.781V490.04H271.183V496.432H272.781V499.662H277.575V496.432H279.207V490.04ZM295.405 501.362V499.662H297.037V488.408H295.405V486.776H293.875V488.408H292.243V490.04H290.611V499.662H292.243V501.362H285.715V499.662H287.313V488.408H285.715V486.708H287.313V485.11H290.611V488.34H292.175V486.708H293.807V485.11H298.737V486.708H300.335V499.662H301.967V501.362H295.405ZM316.461 501.362V499.73H314.897V501.362H306.737V499.73H305.139V494.834H306.737V493.202H310.001V491.57H314.829V486.776H310.035V488.408H308.437V490.04H306.737V486.708H310.001V485.11H316.529V486.708H318.161V499.662H319.759V501.362H316.461ZM314.829 493.27H310.035V494.868H308.437V499.662H313.231V498.064H314.829V493.27ZM326.199 501.362V499.73H324.567V486.776H322.969V485.11H324.567V483.478H326.199V481.88H327.865V485.11H331.129V486.776H327.865V499.662H331.129V501.362H326.199ZM345.681 498.132V499.73H344.049V501.362H337.521V499.73H335.889V498.132H334.291V488.34H335.889V486.708H337.521V485.11H344.049V486.708H345.681V488.34H347.313V493.27H337.589V498.064H339.187V499.662H343.981V498.064H345.613V496.432H347.313V498.132H345.681ZM343.981 488.408H342.383V486.776H339.187V488.408H337.589V491.57H343.981V488.408ZM371.512 501.362V499.73H369.948V501.362H361.788V499.73H360.19V494.834H361.788V493.202H365.052V491.57H369.88V486.776H365.086V488.408H363.488V490.04H361.788V486.708H365.052V485.11H371.58V486.708H373.212V499.662H374.81V501.362H371.512ZM369.88 493.27H365.086V494.868H363.488V499.662H368.282V498.064H369.88V493.27ZM387.71 501.362V499.662H389.342V488.408H387.71V486.776H386.18V488.408H384.548V490.04H382.916V499.662H384.548V501.362H378.02V499.662H379.618V488.408H378.02V486.708H379.618V485.11H382.916V488.34H384.48V486.708H386.112V485.11H391.042V486.708H392.64V499.662H394.272V501.362H387.71ZM407.134 501.362V499.73H405.604V501.362H400.674V499.73H399.042V498.132H397.444V488.34H399.042V486.708H400.674V485.11H405.604V486.708H407.134V481.948H405.536V480.248H407.134V478.616H410.466V499.662H412.064V501.362H407.134ZM407.134 488.408H405.536V486.776H402.34V488.408H400.742V498.064H402.34V499.662H405.536V498.064H407.134V488.408ZM446.116 486.776V490.04H444.484V494.868H442.852V498.132H441.254V501.362H439.554V498.132H437.956V494.868H436.324V490.04H434.76V494.868H433.162V498.132H431.53V501.362H429.864V498.132H428.232V494.868H426.6V490.04H425.002V486.776H423.37V485.11H429.898V486.776H428.3V489.972H429.898V494.834H433.094V489.972H434.692V486.776H433.094V485.11H439.622V486.776H438.024V489.972H439.622V494.834H442.784V489.972H444.416V486.776H442.784V485.11H447.714V486.776H446.116ZM450.872 481.948V478.616H454.17V481.948H450.872ZM449.274 501.362V499.662H450.872V488.408H449.274V486.708H450.872V485.11H454.17V499.662H455.802V501.362H449.274ZM459.002 501.362V499.662H460.6V481.948H459.002V480.248H460.6V478.616H463.898V499.662H465.53V501.362H459.002ZM468.731 501.362V499.662H470.329V481.948H468.731V480.248H470.329V478.616H473.627V499.662H475.259V501.362H468.731ZM480.057 481.948V478.616H483.355V481.948H480.057ZM478.459 501.362V499.662H480.057V488.408H478.459V486.708H480.057V485.11H483.355V499.662H484.987V501.362H478.459ZM497.878 501.362V499.662H499.51V488.408H497.878V486.776H496.348V488.408H494.716V490.04H493.084V499.662H494.716V501.362H488.188V499.662H489.786V488.408H488.188V486.708H489.786V485.11H493.084V488.34H494.648V486.708H496.28V485.11H501.21V486.708H502.808V499.662H504.44V501.362H497.878ZM519.002 486.776V488.34H520.634V491.638H519.002V493.27H517.37V494.868H512.508V496.432H519.002V498.064H520.634V502.994H519.002V504.592H517.37V506.224H509.21V504.592H507.612V501.294H509.21V499.662H510.842V498.132H509.21V494.834H510.842V493.27H509.21V491.638H507.612V488.34H509.21V486.708H510.842V485.11H517.37V486.708H518.934V485.11H522.232V486.776H519.002ZM517.302 488.408H515.704V486.776H512.508V488.408H510.91V491.57H512.508V493.202H515.704V491.57H517.302V488.408ZM518.934 499.73H510.91V501.362H509.278V502.926H510.91V504.524H517.302V502.926H518.934V499.73ZM536.74 501.362V499.73H535.108V486.776H533.51V485.11H535.108V483.478H536.74V481.88H538.406V485.11H541.67V486.776H538.406V499.662H541.67V501.362H536.74ZM557.854 496.5V499.73H554.59V501.362H549.694V499.73H546.43V496.5H544.832V489.972H546.43V486.708H549.694V485.11H554.59V486.708H557.854V489.972H559.452V496.5H557.854ZM556.154 490.04H554.522V486.776H549.728V490.04H548.13V496.432H549.728V499.662H554.522V496.432H556.154V490.04ZM573.989 481.948V478.616H577.287V481.948H573.989ZM572.391 501.362V499.662H573.989V488.408H572.391V486.708H573.989V485.11H577.287V499.662H578.919V501.362H572.391ZM591.809 501.362V499.662H593.441V488.408H591.809V486.776H590.279V488.408H588.647V490.04H587.015V499.662H588.647V501.362H582.119V499.662H583.717V488.408H582.119V486.708H583.717V485.11H587.015V488.34H588.579V486.708H590.211V485.11H595.141V486.708H596.739V499.662H598.371V501.362H591.809ZM609.703 499.73V501.362H601.543V498.064H603.209V499.662H608.003V496.5H606.405V494.868H604.773V493.27H603.141V491.638H601.543V486.708H603.141V485.11H611.301V488.408H609.635V486.776H604.841V489.972H606.439V491.57H608.071V493.202H609.703V494.834H611.301V499.73H609.703ZM627.515 498.132V499.73H625.883V501.362H620.953V499.73H619.389V504.524H621.021V506.224H614.493V504.524H616.091V488.408H614.493V486.708H616.091V485.11H619.389V486.708H620.953V485.11H625.883V486.708H627.515V488.34H629.113V498.132H627.515ZM625.815 488.408H624.183V486.776H621.021V488.408H619.389V498.064H621.021V499.662H624.183V498.064H625.815V488.408ZM633.921 481.948V478.616H637.219V481.948H633.921ZM632.323 501.362V499.662H633.921V488.408H632.323V486.708H633.921V485.11H637.219V499.662H638.851V501.362H632.323ZM648.579 488.408V490.04H646.947V499.662H648.579V501.362H642.051V499.662H643.649V488.408H642.051V486.708H643.649V485.11H646.947V488.34H648.511V486.708H650.143V485.11H653.441V488.408H648.579ZM666.39 498.132V499.73H664.758V501.362H658.23V499.73H656.598V498.132H655V488.34H656.598V486.708H658.23V485.11H664.758V486.708H666.39V488.34H668.022V493.27H658.298V498.064H659.896V499.662H664.69V498.064H666.322V496.432H668.022V498.132H666.39ZM664.69 488.408H663.092V486.776H659.896V488.408H658.298V491.57H664.69V488.408ZM690.657 499.73V501.362H684.129V499.73H682.497V498.132H680.899V488.34H682.497V486.708H684.129V485.11H690.657V486.708H692.289V490.04H688.991V486.776H685.795V488.408H684.197V498.064H685.795V499.662H690.589V498.064H692.289V499.73H690.657ZM705.165 501.362V499.662H706.797V488.408H705.165V486.776H703.635V488.408H702.003V490.04H700.371V499.662H702.003V501.362H695.475V499.662H697.073V481.948H695.475V480.248H697.073V478.616H700.371V488.34H701.935V486.708H703.567V485.11H708.497V486.708H710.095V499.662H711.727V501.362H705.165ZM726.221 501.362V499.73H724.657V501.362H716.497V499.73H714.899V494.834H716.497V493.202H719.761V491.57H724.589V486.776H719.795V488.408H718.197V490.04H716.497V486.708H719.761V485.11H726.289V486.708H727.921V499.662H729.519V501.362H726.221ZM724.589 493.27H719.795V494.868H718.197V499.662H722.991V498.064H724.589V493.27ZM742.419 501.362V499.662H744.051V488.408H742.419V486.776H740.889V488.408H739.257V490.04H737.625V499.662H739.257V501.362H732.729V499.662H734.327V488.408H732.729V486.708H734.327V485.11H737.625V488.34H739.189V486.708H740.821V485.11H745.751V486.708H747.349V499.662H748.981V501.362H742.419ZM763.543 486.776V488.34H765.175V491.638H763.543V493.27H761.911V494.868H757.049V496.432H763.543V498.064H765.175V502.994H763.543V504.592H761.911V506.224H753.751V504.592H752.153V501.294H753.751V499.662H755.383V498.132H753.751V494.834H755.383V493.27H753.751V491.638H752.153V488.34H753.751V486.708H755.383V485.11H761.911V486.708H763.475V485.11H766.773V486.776H763.543ZM761.843 488.408H760.245V486.776H757.049V488.408H755.451V491.57H757.049V493.202H760.245V491.57H761.843V488.408ZM763.475 499.73H755.451V501.362H753.819V502.926H755.451V504.524H761.843V502.926H763.475V499.73ZM779.713 498.132V499.73H778.081V501.362H771.553V499.73H769.921V498.132H768.323V488.34H769.921V486.708H771.553V485.11H778.081V486.708H779.713V488.34H781.345V493.27H771.621V498.064H773.219V499.662H778.013V498.064H779.645V496.432H781.345V498.132H779.713ZM778.013 488.408H776.415V486.776H773.219V488.408H771.621V491.57H778.013V488.408ZM784.493 501.362V498.064H787.791V501.362H784.493Z" fill="#5B81F1"/>
<path d="M236.17 154.354H234.3L208.29 200.764C202.51 211.049 199.365 215.469 196.135 216.064L195.965 217.084H209.905L210.075 216.064C204.04 215.469 205.655 211.389 211.18 201.359L214.07 196.089H234.47L236.085 208.159C236.85 213.854 234.98 215.724 230.05 216.064L229.88 217.084H248.665L248.835 216.064C245.265 215.724 244.33 213.429 243.395 206.204L236.17 154.354ZM230.56 166.509L234.13 193.369H215.6L230.56 166.509ZM282.425 171.524C275.54 171.524 268.57 177.219 263.64 187.674L271.46 150.614H270.78L259.815 152.654L259.645 153.674C262.365 154.354 263.385 156.139 262.28 161.494L253.525 202.804C253.1 204.589 252.93 206.119 252.93 207.649C252.93 214.789 257.35 218.104 264.065 218.104C279.79 218.104 291.18 199.404 291.18 184.104C291.18 175.944 287.95 171.524 282.425 171.524ZM265.425 215.894C261.005 215.894 259.73 212.834 259.73 208.414C259.73 206.629 259.9 205.269 260.155 203.824C263.47 188.014 272.395 176.029 278.6 176.029C282 176.029 283.955 179.174 283.955 185.549C283.955 199.149 274.945 215.894 265.425 215.894ZM309.148 218.104C322.238 218.104 332.098 203.314 332.098 189.034C332.098 178.239 326.063 171.524 316.713 171.524C303.538 171.524 293.678 186.654 293.678 200.679C293.678 211.474 299.883 218.104 309.148 218.104ZM309.233 215.809C303.623 215.809 300.733 211.304 300.733 203.909C300.733 191.584 306.853 173.819 316.713 173.819C322.323 173.819 325.128 178.324 325.128 185.719C325.128 198.044 319.093 215.809 309.233 215.809ZM377.334 204.249C374.954 208.074 371.809 211.984 370.279 211.984C368.834 211.984 369.344 209.859 369.599 208.329L377.249 172.374H376.484L370.109 173.479C365.264 195.834 353.704 212.919 347.074 212.919C343.164 212.919 344.099 207.989 345.374 202.464L350.389 180.534C351.579 175.434 351.324 171.524 347.244 171.524C343.674 171.524 339.679 175.519 335.939 182.829L337.299 183.679C339.934 179.769 341.804 177.304 342.994 177.304C344.269 177.304 343.674 179.259 343.249 181.299L338.574 201.784C336.534 210.624 335.939 218.104 342.994 218.104C351.749 218.104 359.994 207.564 366.114 192.604L362.544 209.094C361.524 214.109 361.609 218.104 365.604 218.104C369.684 218.104 374.444 213.259 378.694 205.099L377.334 204.249ZM408.887 176.029L410.842 172.544H396.562L398.857 161.409H397.837C393.587 168.549 390.357 171.779 386.107 173.479L384.832 173.989L384.407 176.029H388.912L382.197 207.309C380.922 213.514 382.027 218.104 386.532 218.104C391.972 218.104 398.942 211.559 403.872 202.379L402.512 201.529C398.517 208.074 393.502 212.664 390.952 212.664C388.487 212.664 388.657 209.434 389.337 206.459L395.712 176.029H408.887ZM472.354 155.204H429.769L426.029 167.954H427.049C433.254 159.114 435.719 157.584 444.219 157.584H446.854L436.569 205.949C435.209 212.239 434.019 216.064 428.239 216.064L428.069 217.084H447.874L448.044 216.064C442.264 216.064 442.689 212.239 444.049 205.949L454.334 157.584H456.799C465.469 157.584 467.339 159.114 469.804 167.954H470.824L472.354 155.204ZM507.613 204.249C505.233 208.244 502.003 212.239 500.473 212.239C499.113 212.239 499.538 210.369 500.048 208.329L504.723 187.844C506.763 179.004 507.273 171.524 500.303 171.524C491.633 171.524 483.303 181.809 477.268 196.684L486.958 150.614H486.278L475.398 152.654L475.143 153.674C477.948 154.354 478.883 156.139 477.778 161.494L466.048 217.084H472.933C477.523 195.494 488.828 176.879 496.138 176.879C500.048 176.879 499.198 181.639 497.838 187.164L492.908 209.094C491.718 214.194 491.888 218.104 495.968 218.104C499.963 218.104 504.723 213.259 509.058 205.099L507.613 204.249ZM546.098 178.069C546.098 174.159 543.208 171.524 536.833 171.524C520.003 171.524 510.398 190.649 510.398 204.164C510.398 213.684 515.243 218.104 522.043 218.104C528.673 218.104 535.218 213.939 541.423 204.504L540.063 203.654C535.303 209.519 530.203 213.429 525.103 213.429C520.428 213.429 517.623 210.284 517.623 202.549C517.623 200.254 517.878 198.044 518.303 195.834C535.133 190.734 546.098 185.974 546.098 178.069ZM535.473 173.734C538.533 173.734 539.723 175.264 539.723 178.069C539.723 184.529 532.583 188.524 518.898 193.284C521.788 182.659 529.013 173.734 535.473 173.734ZM636.797 155.204H622.942L594.637 205.014L587.242 155.204H573.217L573.047 156.224C576.617 156.904 578.997 158.434 577.297 165.064L567.352 202.464C565.227 210.539 562.677 215.639 558.002 216.064L557.832 217.084H573.727L573.897 216.064C568.967 216.064 568.117 210.624 570.327 202.464L580.867 162.684L589.027 217.084H591.067L621.667 163.364L614.782 206.544C613.762 212.834 612.912 216.064 607.132 216.064L606.962 217.084H626.257L626.427 216.064C620.817 216.064 621.242 212.834 622.262 206.544L628.637 165.999C629.742 159.199 630.762 156.734 636.627 156.224L636.797 155.204ZM671.387 204.249C669.177 207.904 665.947 211.984 664.417 211.984C662.887 211.984 663.567 209.434 663.822 208.329L671.557 172.034H669.857L666.372 174.754C664.587 172.544 661.612 171.524 657.702 171.524C642.062 171.524 630.587 190.224 630.587 205.524C630.587 213.684 633.817 218.104 639.342 218.104C646.142 218.104 653.282 212.324 658.297 201.699L656.682 209.094C655.832 212.919 655.407 218.104 659.742 218.104C663.907 218.104 668.497 213.259 672.747 205.099L671.387 204.249ZM643.167 213.599C639.767 213.599 637.812 210.454 637.812 204.079C637.812 190.479 646.907 173.734 656.342 173.734C660.762 173.734 662.122 176.794 662.122 181.214C662.122 182.999 661.952 184.359 661.612 185.804C658.297 201.614 649.372 213.599 643.167 213.599ZM700.876 173.139C699.006 172.119 696.711 171.609 694.161 171.524C684.046 171.354 676.311 179.599 676.311 189.204C676.311 195.494 679.881 199.914 685.661 201.274C681.156 202.549 677.416 204.844 677.416 208.584C677.416 211.474 679.796 213.089 682.771 213.939L693.226 216.744C698.411 218.104 703.341 219.804 703.341 224.564C703.341 229.919 695.776 234.084 686.851 234.084C678.011 234.084 673.676 230.599 673.676 225.329C673.676 221.419 676.056 217.424 681.581 214.704L679.626 214.279L678.436 214.789C670.956 218.529 668.151 222.524 668.151 227.199C668.151 233.319 672.656 237.484 682.516 237.484C696.626 237.484 708.441 230.174 708.441 220.739C708.441 214.534 702.321 212.494 694.756 210.369L686.341 208.074C684.641 207.649 683.876 206.799 683.876 205.609C683.876 203.909 685.491 203.059 689.826 201.699C699.601 201.529 706.911 193.369 706.911 183.934C706.911 180.619 705.891 177.899 704.191 175.859L712.946 176.624L715.156 171.949L700.876 173.139ZM689.146 199.489C684.896 199.489 682.686 196.684 682.686 191.414C682.686 183.934 686.766 173.734 694.161 173.734C698.411 173.734 700.536 176.454 700.536 181.809C700.536 189.204 696.541 199.489 689.146 199.489ZM719.245 200.849C723.58 185.719 731.74 158.179 732.165 156.224C732.59 153.844 730.635 151.464 728.17 151.464C725.96 151.464 724.345 152.909 723.92 154.949C723.495 156.649 719.67 185.719 717.545 200.849H719.245ZM715.76 218.104C718.395 218.104 720.605 215.894 720.605 213.259C720.605 210.539 718.395 208.329 715.76 208.329C713.04 208.329 710.83 210.539 710.83 213.259C710.83 215.894 713.04 218.104 715.76 218.104Z" fill="#5B81F1"/>
</svg>
