<?xml version="1.0" encoding="UTF-8"?>
<svg id="Layer_2" data-name="Layer 2" xmlns="http://www.w3.org/2000/svg" viewBox="0 0 210.84 210.29">
  <defs>
    <style>
      .cls-1 {
        fill: #5b81f1;
      }
    </style>
  </defs>
  <g id="liquid">
    <path class="cls-1" d="m174.85,210.29c-19.42,0-42.43-10.79-64.81-30.4l-4.62-4.05-4.62,4.05c-22.37,19.6-45.39,30.4-64.82,30.4-15.22,0-27.07-6.88-32.51-18.87-11.23-24.76,6.61-58.42,27.06-81.67l4.06-4.61-4.06-4.61C10.09,77.29-7.75,43.63,3.48,18.87,8.92,6.88,20.77,0,35.98,0c19.43,0,42.45,10.79,64.82,30.4l4.62,4.05,4.62-4.05C132.41,10.79,155.43,0,174.86,0c15.22,0,27.07,6.88,32.51,18.87,11.23,24.76-6.61,58.42-27.06,81.67l-4.06,4.61,4.06,4.61c20.44,23.24,38.28,56.9,27.05,81.66-5.44,11.99-17.29,18.87-32.5,18.87h-.01Z"/>
  </g>
</svg>