<?xml version="1.0" encoding="UTF-8"?>
<svg id="Layer_2" data-name="Layer 2" xmlns="http://www.w3.org/2000/svg" viewBox="0 0 68.8 68.62">
  <defs>
    <style>
      .cls-1 {
        fill: #5b81f1;
      }
    </style>
  </defs>
  <g id="liquid">
    <path class="cls-1" d="m57.06,68.62c-6.34,0-13.85-3.52-21.15-9.92l-1.51-1.32-1.51,1.32c-7.3,6.4-14.81,9.92-21.15,9.92-4.97,0-8.83-2.24-10.61-6.16-3.67-8.08,2.16-19.07,8.83-26.65l1.32-1.5-1.32-1.5C3.29,25.22-2.53,14.24,1.14,6.16,2.91,2.24,6.78,0,11.74,0c6.34,0,13.85,3.52,21.15,9.92l1.51,1.32,1.51-1.32C43.21,3.52,50.72,0,57.06,0c4.97,0,8.83,2.24,10.61,6.16,3.67,8.08-2.16,19.07-8.83,26.65l-1.32,1.5,1.32,1.5c6.67,7.58,12.49,18.57,8.83,26.65-1.77,3.91-5.64,6.16-10.61,6.16h0Z"/>
  </g>
</svg>