<?xml version="1.0" encoding="utf-8"?>
<!-- Generator: Adobe Illustrator 27.2.0, SVG Export Plug-In . SVG Version: 6.00 Build 0)  -->
<svg version="1.1" id="Layer_2_00000048488185538521872990000013140594078017977000_"
	 xmlns="http://www.w3.org/2000/svg" xmlns:xlink="http://www.w3.org/1999/xlink" x="0px" y="0px" viewBox="0 0 50.3 50.3"
	 style="enable-background:new 0 0 50.3 50.3;" xml:space="preserve">
<style type="text/css">
	.st0{fill:#5B81F1;}
</style>
<path class="st0" d="M45.1,41.6c-0.4,0.9-1.6,1.3-2.5,0.8l-11.2-6.7L32,48.3c0.1,1-0.8,1.9-1.8,1.9h-9.7c-1,0-1.9-0.9-1.8-1.9
	l0.4-12.8l-10.9,7c-0.9,0.6-2.1,0.3-2.7-0.6L1,34c-0.6-0.9-0.3-2.1,0.6-2.5l10.7-5.7L1.6,20.3c-1-0.4-1.3-1.6-0.9-2.7L5,9.1
	c0.4-1,1.6-1.3,2.5-0.8L19,15.2L18.4,1.9c-0.1-1,0.8-1.9,1.8-1.9h9.4c1,0,1.9,0.9,1.9,1.9l-0.4,13.1l11.3-7.5
	C43.3,7,44.5,7.3,45,8.2l4.6,8.2c0.4,0.9,0.1,2.1-0.8,2.5l-11,6.1l10.4,5.2c1,0.4,1.3,1.6,0.9,2.7L45.1,41.6L45.1,41.6z"/>
</svg>
