<?xml version="1.0" encoding="UTF-8"?>
<svg id="Layer_2" data-name="Layer 2" xmlns="http://www.w3.org/2000/svg" viewBox="0 0 45.71 46.79">
  <defs>
    <style>
      .cls-1 {
        fill: #5b81f1;
      }
    </style>
  </defs>
  <g id="liquid">
    <path class="cls-1" d="m29.66,0h-13.61c-1.7,0-3.33.69-4.52,1.9L1.8,11.86c-1.15,1.18-1.8,2.77-1.8,4.42v14.23c0,1.65.65,3.23,1.8,4.42l9.73,9.96c1.19,1.22,2.82,1.9,4.52,1.9h13.61c1.7,0,3.33-.69,4.52-1.9l9.73-9.96c1.15-1.18,1.8-2.77,1.8-4.42v-14.23c0-1.65-.65-3.23-1.8-4.42L34.18,1.9c-1.19-1.22-2.82-1.9-4.52-1.9Z"/>
  </g>
</svg>