<?xml version="1.0" encoding="UTF-8"?>
<svg id="Layer_2" data-name="Layer 2" xmlns="http://www.w3.org/2000/svg" viewBox="0 0 210.23 210.23">
  <defs>
    <style>
      .cls-1 {
        fill: #5b81f1;
      }
    </style>
  </defs>
  <g id="liquid">
    <path class="cls-1" d="m210.23,105.11c0,12.97-20.74,21.73-25.42,33.01s3.45,32.51-5.37,41.32c-8.81,8.81-29.63.52-41.32,5.36-11.28,4.68-20.03,25.42-33.01,25.42s-21.73-20.74-33.01-25.42c-11.69-4.85-32.51,3.45-41.32-5.37-8.81-8.81-.52-29.63-5.36-41.32C20.74,126.84,0,118.09,0,105.11s20.74-21.73,25.42-33.01c4.85-11.69-3.45-32.51,5.37-41.32,8.81-8.81,29.63-.52,41.32-5.36C83.39,20.74,92.14,0,105.11,0s21.73,20.74,33.01,25.42c11.69,4.85,32.51-3.45,41.32,5.37,8.81,8.81.52,29.63,5.36,41.32,4.68,11.28,25.42,20.03,25.42,33.01Z"/>
  </g>
</svg>