<?xml version="1.0" encoding="utf-8"?>
<!-- Generator: Adobe Illustrator 27.2.0, SVG Export Plug-In . SVG Version: 6.00 Build 0)  -->
<svg version="1.1" id="Layer_2_00000080899400845417275740000011705534428931208084_"
	 xmlns="http://www.w3.org/2000/svg" xmlns:xlink="http://www.w3.org/1999/xlink" x="0px" y="0px" viewBox="0 0 50.3 50.3"
	 style="enable-background:new 0 0 50.3 50.3;" xml:space="preserve">
<style type="text/css">
	.st0{fill:#5B81F1;}
</style>
<path class="st0" d="M47.1,32.4c4.1,4.1,4.2,10.9,0,15c-4.1,3.9-10.5,3.9-14.5-0.1L28,42.7c-1.6-1.6-4.2-1.6-5.8,0l-4.5,4.5
	c-4,4-10.6,4-14.7,0s-4-10.6,0-14.7L7.6,28c1.6-1.6,1.6-4.2,0-5.8L3,17.7C-1,13.7-1,7.1,3,3c2-2,4.7-3,7.3-3s5.3,1,7.3,3l4.5,4.5
	c1.6,1.6,4.2,1.6,5.8,0L32.6,3c4-4,10.6-4,14.7,0c2,2,3,4.7,3,7.3s-1,5.3-3,7.3l-4.5,4.5c-1.6,1.6-1.6,4.2,0,5.8L47.1,32.4
	L47.1,32.4z"/>
</svg>
