<?xml version="1.0" encoding="UTF-8"?>
<svg id="Layer_2" data-name="Layer 2" xmlns="http://www.w3.org/2000/svg" viewBox="0 0 208.68 208.68">
  <defs>
    <style>
      .cls-1 {
        fill: #5b81f1;
      }
    </style>
  </defs>
  <g id="liquid">
    <path class="cls-1" d="m195.36,134.49c17.06,17.06,17.48,45.4.11,62.14-16.84,16.24-43.69,16.05-60.32-.56l-18.81-18.81c-6.64-6.64-17.41-6.64-24.05,0l-18.81,18.8c-16.82,16.82-44.07,16.82-60.89,0-16.8-16.8-16.8-44.07,0-60.89l18.8-18.79c6.64-6.64,6.65-17.41,0-24.05l-18.8-18.8C-4.2,56.7-4.2,29.45,12.6,12.62,21.01,4.21,32.02,0,43.05,0s22.04,4.21,30.45,12.62l18.8,18.8c6.64,6.64,17.41,6.64,24.05,0l18.81-18.82c16.82-16.8,44.07-16.8,60.89,0,8.41,8.41,12.62,19.42,12.62,30.45s-4.21,22.04-12.62,30.45l-18.81,18.82c-6.64,6.64-6.64,17.41,0,24.05l18.12,18.12Z"/>
  </g>
</svg>