<?xml version="1.0" encoding="UTF-8"?>
<svg id="Layer_2" data-name="Layer 2" xmlns="http://www.w3.org/2000/svg" viewBox="0 0 68.6 68.6">
  <defs>
    <style>
      .cls-1 {
        fill: #5b81f1;
      }
    </style>
  </defs>
  <g id="liquid">
    <path class="cls-1" d="m68.6,34.3c0,4.23-6.77,7.09-8.3,10.77-1.58,3.82,1.12,10.61-1.75,13.48-2.88,2.88-9.67.17-13.48,1.75-3.68,1.53-6.54,8.3-10.77,8.3s-7.09-6.77-10.77-8.3c-3.82-1.58-10.61,1.12-13.48-1.75-2.88-2.88-.17-9.67-1.75-13.48-1.53-3.68-8.3-6.54-8.3-10.77s6.77-7.09,8.3-10.77c1.58-3.82-1.12-10.61,1.75-13.48s9.67-.17,13.48-1.75c3.68-1.53,6.54-8.3,10.77-8.3s7.09,6.77,10.77,8.3,10.61-1.12,13.48,1.75c2.88,2.88.17,9.67,1.75,13.48,1.53,3.68,8.3,6.54,8.3,10.77Z"/>
  </g>
</svg>