<?xml version="1.0" encoding="UTF-8"?>
<svg id="Layer_2" data-name="Layer 2" xmlns="http://www.w3.org/2000/svg" viewBox="0 0 211.86 208.84">
  <defs>
    <style>
      .cls-1 {
        fill: #e8eef7;
      }

      .cls-2 {
        fill: #5b81f1;
      }
    </style>
  </defs>
  <g id="liquid">
    <g>
      <path class="cls-2" d="m134.32,18.02l8.2,16.96c4.61,9.54,13.53,16.15,23.84,17.68l18.34,2.72c25.97,3.85,36.34,36.43,17.55,55.13l-13.27,13.21c-7.46,7.43-10.87,18.12-9.11,28.61l3.13,18.65c4.44,26.4-22.71,46.54-45.94,34.07l-16.41-8.8c-9.22-4.95-20.25-4.95-29.47,0l-16.41,8.8c-23.23,12.47-50.38-7.67-45.94-34.07l3.13-18.65c1.76-10.49-1.64-21.18-9.11-28.61l-13.27-13.21C-9.2,91.82,1.17,59.24,27.15,55.38l18.34-2.72c10.31-1.53,19.23-8.14,23.84-17.68l8.2-16.96c11.62-24.02,45.18-24.02,56.79,0Z"/>
      <circle class="cls-1" cx="105.93" cy="108.08" r="22.77"/>
    </g>
  </g>
</svg>