<?xml version="1.0" encoding="UTF-8"?>
<svg id="Layer_2" data-name="Layer 2" xmlns="http://www.w3.org/2000/svg" viewBox="0 0 69 68.53">
  <defs>
    <style>
      .cls-1 {
        fill: #5b81f1;
      }
    </style>
  </defs>
  <g id="liquid">
    <path class="cls-1" d="m69,34.26c0,1.37-1.96,2.61-2.12,3.93-.16,1.36,1.44,3.02,1.12,4.33-.32,1.32-2.52,2.05-3,3.31-.48,1.27.68,3.28.05,4.47-.63,1.2-2.94,1.38-3.71,2.49s-.13,3.34-1.02,4.35c-.9,1.01-3.18.64-4.2,1.54-1.01.9-.91,3.21-2.03,3.98-1.11.77-3.24-.14-4.44.49s-1.65,2.9-2.92,3.38-3.11-.92-4.43-.59c-1.3.32-2.29,2.41-3.65,2.58s-2.79-1.64-4.16-1.64-2.83,1.8-4.16,1.64-2.35-2.26-3.65-2.58c-1.32-.32-3.17,1.07-4.43.59s-1.73-2.75-2.92-3.38-3.33.28-4.44-.49-1.02-3.09-2.03-3.98-3.3-.52-4.2-1.54c-.9-1.01-.25-3.24-1.02-4.35-.77-1.11-3.08-1.29-3.71-2.49-.63-1.19.53-3.2.05-4.47-.48-1.26-2.68-1.99-3-3.31-.32-1.3,1.29-2.97,1.12-4.32-.16-1.33-2.12-2.56-2.12-3.93s1.96-2.61,2.12-3.93c.16-1.36-1.44-3.02-1.12-4.33.32-1.32,2.52-2.05,3-3.31.48-1.27-.68-3.28-.05-4.47s2.94-1.38,3.71-2.49c.77-1.11.13-3.34,1.02-4.35s3.18-.64,4.2-1.54.91-3.21,2.03-3.98c1.11-.77,3.24.14,4.44-.49s1.65-2.9,2.92-3.38c1.26-.48,3.11.92,4.43.59S28.99.17,30.34.01s2.79,1.64,4.16,1.64S37.33-.15,38.66.01s2.35,2.26,3.65,2.58,3.17-1.07,4.43-.59,1.73,2.75,2.92,3.38c1.2.63,3.33-.28,4.44.49,1.11.77,1.02,3.09,2.03,3.98,1.01.9,3.3.52,4.2,1.54.9,1.01.25,3.24,1.02,4.35.77,1.11,3.08,1.29,3.71,2.49s-.53,3.2-.05,4.47c.48,1.26,2.68,1.99,3,3.31.32,1.3-1.29,2.97-1.12,4.32.16,1.33,2.12,2.56,2.12,3.93Z"/>
  </g>
</svg>