<?xml version="1.0" encoding="UTF-8"?>
<svg id="Layer_2" data-name="Layer 2" xmlns="http://www.w3.org/2000/svg" viewBox="0 0 210.23 210.05">
  <defs>
    <style>
      .cls-1 {
        fill: #5b81f1;
      }
    </style>
  </defs>
  <g id="liquid">
    <path class="cls-1" d="m186.91,105.05l20.48-19.91c3.79-3.69,3.79-9.66,0-13.34L136.28,2.76c-3.79-3.68-9.95-3.68-13.74,0l-17.92,17.38L86.7,2.76c-3.8-3.68-9.95-3.68-13.74,0L3.55,70.14c-4.74,4.59-4.74,12.06,0,16.65l18.77,18.25L3.55,123.26c-4.74,4.64-4.74,12.06,0,16.65l69.4,67.38c3.79,3.68,9.95,3.68,13.74,0l17.92-17.38,17.92,17.39c3.79,3.68,9.95,3.68,13.74,0l69.41-67.38c4.74-4.6,4.74-12.01,0-16.65l-18.77-18.21Z"/>
  </g>
</svg>