<?xml version="1.0" encoding="UTF-8"?>
<svg id="Layer_2" data-name="Layer 2" xmlns="http://www.w3.org/2000/svg" viewBox="0 0 69.13 68.15">
  <defs>
    <style>
      .cls-1 {
        fill: #e8eef7;
      }

      .cls-2 {
        fill: #5b81f1;
      }
    </style>
  </defs>
  <g id="liquid">
    <g>
      <path class="cls-1" d="m43.83,5.88l2.68,5.54c1.51,3.11,4.41,5.27,7.78,5.77l5.99.89c8.48,1.26,11.86,11.89,5.73,17.99l-4.33,4.31c-2.44,2.42-3.55,5.91-2.97,9.34l1.02,6.08c1.45,8.62-7.41,15.19-14.99,11.12l-5.35-2.87c-3.01-1.62-6.61-1.62-9.62,0l-5.35,2.87c-7.58,4.07-16.44-2.5-14.99-11.12l1.02-6.08c.57-3.42-.54-6.91-2.97-9.34l-4.33-4.31C-3,29.96.38,19.33,8.86,18.07l5.99-.89c3.37-.5,6.28-2.66,7.78-5.77l2.68-5.54c3.79-7.84,14.74-7.84,18.53,0Z"/>
      <circle class="cls-2" cx="34.57" cy="35.27" r="7.43"/>
    </g>
  </g>
</svg>