<?xml version="1.0" encoding="UTF-8"?>
<svg id="Layer_2" data-name="Layer 2" xmlns="http://www.w3.org/2000/svg" viewBox="0 0 204.95 208.84">
  <defs>
    <style>
      .cls-1 {
        fill: #5b81f1;
      }
    </style>
  </defs>
  <g id="liquid">
    <path class="cls-1" d="m185.5,172.9c-1.86,3.72-6.82,5.57-10.53,3.1l-46.48-27.89,2.47,52.67c.63,4.34-3.1,8.05-7.43,8.05h-40.28c-4.34,0-8.06-3.72-7.44-8.05l1.86-53.3-45.23,29.12c-3.73,2.48-8.67,1.24-11.16-2.48L2.07,141.29c-2.47-3.72-1.23-8.68,2.48-10.54l44.62-23.55L4.56,84.28c-4.34-1.86-5.58-6.82-3.72-11.15l17.96-35.32c1.87-4.34,6.83-5.57,10.54-3.1l47.72,28.51-2.48-55.15c-.62-4.34,3.1-8.06,7.44-8.06h39.03c4.34,0,8.06,3.72,8.06,8.06l-1.86,54.53,47.1-30.98c3.72-2.48,8.67-1.24,10.53,2.48l19.21,34.08c1.86,3.72.62,8.68-3.1,10.54l-45.86,25.4,43.38,21.69c4.34,1.86,5.58,6.82,3.73,11.15l-16.74,35.94Z"/>
  </g>
</svg>