<?xml version="1.0" encoding="utf-8"?>
<!-- Generator: Adobe Illustrator 27.2.0, SVG Export Plug-In . SVG Version: 6.00 Build 0)  -->
<svg version="1.1" id="Layer_2_00000048463156712429187070000009784700871047631519_"
	 xmlns="http://www.w3.org/2000/svg" xmlns:xlink="http://www.w3.org/1999/xlink" x="0px" y="0px" viewBox="0 0 126.6 126.6"
	 style="enable-background:new 0 0 126.6 126.6;" xml:space="preserve">
<style type="text/css">
	.st0{fill:#5B81F1;}
	.st1{fill:#E8EEF7;}
</style>
<g>
	<path class="st0" d="M79.9,12.9l4.8,9.9c2.7,5.6,7.9,9.4,13.9,10.3l10.7,1.6c15.2,2.3,21.2,21.3,10.2,32.2l-7.7,7.7
		c-4.4,4.3-6.3,10.6-5.3,16.7l1.8,10.9c2.6,15.4-13.3,27.2-26.8,19.9l-9.6-5.1c-5.4-2.9-11.8-2.9-17.2,0l-9.6,5.1
		c-13.6,7.3-29.4-4.5-26.8-19.9l1.8-10.9c1-6.1-1-12.4-5.3-16.7l-7.7-7.7C-3.8,56,2.2,37,17.4,34.7l10.7-1.6
		c6-0.9,11.2-4.8,13.9-10.3l4.8-9.9C53.6-1.1,73.1-1.1,79.9,12.9L79.9,12.9z"/>
	<circle class="st1" cx="63.3" cy="65.4" r="13.3"/>
</g>
</svg>
