<?xml version="1.0" encoding="UTF-8"?>
<svg id="Layer_2" data-name="Layer 2" xmlns="http://www.w3.org/2000/svg" viewBox="0 0 68.1 68.1">
  <defs>
    <style>
      .cls-1 {
        fill: #5b81f1;
      }
    </style>
  </defs>
  <g id="liquid">
    <path class="cls-1" d="m63.75,43.89c5.57,5.57,5.7,14.82.04,20.28-5.5,5.3-14.26,5.24-19.68-.18l-6.14-6.14c-2.17-2.17-5.68-2.17-7.85,0l-6.14,6.13c-5.49,5.49-14.38,5.49-19.87,0-5.48-5.48-5.48-14.38,0-19.87l6.13-6.13c2.17-2.17,2.17-5.68,0-7.85l-6.14-6.14C-1.37,18.5-1.37,9.61,4.11,4.12,6.86,1.38,10.45,0,14.05,0s7.19,1.38,9.94,4.12l6.14,6.14c2.17,2.17,5.68,2.17,7.85,0l6.14-6.14c5.49-5.48,14.38-5.48,19.87,0,2.74,2.74,4.12,6.34,4.12,9.94s-1.38,7.19-4.12,9.94l-6.14,6.14c-2.17,2.17-2.17,5.68,0,7.85l5.91,5.91Z"/>
  </g>
</svg>