<?xml version="1.0" encoding="UTF-8"?>
<svg id="Layer_2" data-name="Layer 2" xmlns="http://www.w3.org/2000/svg" viewBox="0 0 211.45 209.99">
  <defs>
    <style>
      .cls-1 {
        fill: #5b81f1;
      }
    </style>
  </defs>
  <g id="liquid">
    <path class="cls-1" d="m211.45,104.99c0,4.2-6.01,7.99-6.5,12.05-.5,4.16,4.43,9.27,3.45,13.26-1,4.05-7.74,6.3-9.2,10.15-1.48,3.89,2.07,10.04.15,13.69-1.93,3.68-9.02,4.24-11.37,7.64-2.36,3.41-.38,10.23-3.13,13.33-2.75,3.1-9.76,1.96-12.86,4.7-3.1,2.74-2.8,9.84-6.21,12.2-3.4,2.35-9.93-.43-13.61,1.5s-5.06,8.88-8.95,10.36-9.52-2.81-13.57-1.81c-3.99.98-7.03,7.4-11.19,7.9-4.07.49-8.55-5.02-12.74-5.02s-8.68,5.5-12.74,5.02c-4.16-.5-7.2-6.92-11.19-7.9-4.05-1-9.72,3.27-13.57,1.81-3.89-1.48-5.3-8.44-8.95-10.36-3.68-1.93-10.21.85-13.61-1.5-3.41-2.36-3.12-9.46-6.21-12.2-3.1-2.75-10.11-1.6-12.86-4.71-2.74-3.1-.77-9.92-3.13-13.33-2.35-3.4-9.43-3.96-11.37-7.64-1.92-3.65,1.63-9.8.15-13.69-1.46-3.85-8.2-6.09-9.2-10.14-.98-3.99,3.95-9.1,3.45-13.25-.49-4.07-6.5-7.86-6.5-12.06s6.01-7.99,6.5-12.05c.5-4.16-4.43-9.27-3.45-13.26,1-4.05,7.74-6.3,9.2-10.15,1.48-3.89-2.07-10.04-.15-13.69,1.93-3.68,9.02-4.24,11.37-7.64,2.36-3.41.38-10.23,3.13-13.33,2.75-3.1,9.76-1.96,12.86-4.7,3.1-2.74,2.8-9.84,6.21-12.2,3.4-2.35,9.93.43,13.61-1.5,3.65-1.92,5.06-8.88,8.95-10.36,3.85-1.46,9.52,2.81,13.57,1.81,3.99-.98,7.03-7.4,11.19-7.9,4.07-.49,8.55,5.02,12.74,5.02S114.4-.46,118.47.03s7.2,6.92,11.19,7.9c4.05,1,9.72-3.27,13.57-1.81,3.89,1.48,5.3,8.44,8.95,10.36,3.68,1.93,10.21-.85,13.61,1.5,3.41,2.36,3.12,9.46,6.21,12.2,3.1,2.75,10.11,1.6,12.86,4.71,2.74,3.1.77,9.92,3.13,13.33,2.35,3.4,9.43,3.96,11.37,7.64,1.92,3.65-1.63,9.8-.15,13.69,1.46,3.85,8.2,6.09,9.2,10.14.98,3.99-3.95,9.1-3.45,13.25.49,4.07,6.5,7.86,6.5,12.06Z"/>
  </g>
</svg>