<?xml version="1.0" encoding="UTF-8"?>
<svg id="Layer_2" data-name="Layer 2" xmlns="http://www.w3.org/2000/svg" viewBox="0 0 55.16 60.84">
  <defs>
    <style>
      .cls-1 {
        fill: #5b81f1;
      }
    </style>
  </defs>
  <g id="liquid">
    <path class="cls-1" d="m35.86,5.4h0c1.59,3.61,5.34,5.77,9.26,5.34h0c7.82-.85,12.92,7.99,8.28,14.34h0c-2.33,3.18-2.33,7.51,0,10.69h0c4.64,6.35-.46,15.19-8.28,14.34h0c-3.92-.43-7.66,1.74-9.26,5.34h0c-3.17,7.2-13.38,7.2-16.55,0h0c-1.59-3.61-5.34-5.77-9.26-5.34h0c-7.82.85-12.92-7.99-8.28-14.34h0c2.33-3.18,2.33-7.51,0-10.69h0c-4.64-6.35.46-15.19,8.28-14.34h0c3.92.43,7.66-1.74,9.26-5.34h0c3.17-7.2,13.38-7.2,16.55,0Z"/>
  </g>
</svg>