<?xml version="1.0" encoding="UTF-8"?>
<svg id="Layer_2" data-name="Layer 2" xmlns="http://www.w3.org/2000/svg" viewBox="0 0 66.88 68.15">
  <defs>
    <style>
      .cls-1 {
        fill: #5b81f1;
      }
    </style>
  </defs>
  <g id="liquid">
    <path class="cls-1" d="m60.53,56.42c-.61,1.21-2.22,1.82-3.44,1.01l-15.17-9.1.81,17.19c.2,1.42-1.01,2.63-2.42,2.63h-13.14c-1.42,0-2.63-1.21-2.43-2.63l.61-17.39-14.76,9.5c-1.22.81-2.83.41-3.64-.81L.68,46.11c-.81-1.21-.4-2.83.81-3.44l14.56-7.69L1.49,27.5c-1.42-.61-1.82-2.22-1.21-3.64l5.86-11.53c.61-1.42,2.23-1.82,3.44-1.01l15.57,9.3-.81-18c-.2-1.42,1.01-2.63,2.43-2.63h12.74c1.42,0,2.63,1.21,2.63,2.63l-.61,17.8,15.37-10.11c1.21-.81,2.83-.41,3.44.81l6.27,11.12c.61,1.21.2,2.83-1.01,3.44l-14.97,8.29,14.15,7.08c1.42.61,1.82,2.22,1.22,3.64l-5.46,11.73Z"/>
  </g>
</svg>