<?xml version="1.0" encoding="UTF-8"?>
<svg id="Layer_2" data-name="Layer 2" xmlns="http://www.w3.org/2000/svg" viewBox="0 0 68.6 68.54">
  <defs>
    <style>
      .cls-1 {
        fill: #5b81f1;
      }
    </style>
  </defs>
  <g id="liquid">
    <path class="cls-1" d="m60.99,34.28l6.68-6.5c1.24-1.2,1.24-3.15,0-4.35L44.47.9c-1.24-1.2-3.25-1.2-4.48,0l-5.85,5.67L28.29.9c-1.24-1.2-3.25-1.2-4.48,0L1.16,22.89c-1.55,1.5-1.55,3.93,0,5.43l6.13,5.96-6.13,5.94c-1.55,1.51-1.55,3.93,0,5.43l22.65,21.99c1.24,1.2,3.25,1.2,4.48,0l5.85-5.67,5.85,5.67c1.24,1.2,3.25,1.2,4.48,0l22.65-21.99c1.55-1.5,1.55-3.92,0-5.43l-6.13-5.94Z"/>
  </g>
</svg>