<svg width="501" height="49" viewBox="0 0 501 49" fill="none" xmlns="http://www.w3.org/2000/svg">
<path d="M27.4531 48.071V44.521H30.8611V37.918H27.4531V34.51H10.6971V37.918H7.28914V44.521H10.6971V48.071H0.402145V44.521H3.81014V37.776H7.14714V27.623H10.5551V17.47H13.9631V7.388H17.3001V0.571997H24.1871V7.388H27.5951V17.47H31.0031V27.623H34.3401V37.776H37.7481V44.521H41.0851V48.071H27.4531ZM27.4531 27.765H24.0451V17.612H20.7081V10.867H17.4421V17.612H14.0341V27.765H10.6971V31.031H27.4531V27.765ZM74.9017 41.326V44.663H71.5647V48.071H44.3717V44.521H47.7087V4.122H44.3717V0.571997H68.1567V3.98H71.5647V7.388H74.9017V17.612H71.5647V24.286H74.9017V27.623H78.3097V41.326H74.9017ZM68.0147 7.53H64.6067V4.122H54.5957V20.878H64.6067V17.47H68.0147V7.53ZM71.4227 27.765H68.0147V24.428H54.5957V44.521H68.0147V41.184H71.4227V27.765ZM118.871 34.51V41.326H115.463V44.663H108.718V48.071H98.4232V44.663H91.6782V41.326H88.2702V34.51H84.9332V14.133H88.2702V7.388H91.6782V3.98H98.4232V0.571997H108.718V3.98H115.463V7.388H118.871V14.133H122.208V34.51H118.871ZM115.321 14.275H111.984V7.53H108.576V4.122H98.5652V7.53H95.1572V14.275H91.8202V34.439H95.1572V41.184H98.5652V44.521H108.576V41.184H111.984V34.439H115.321V14.275ZM159.422 4.122V41.326H156.085V44.663H152.677V48.071H139.045V44.663H135.637V41.326H132.229V4.122H128.892V0.571997H142.524V4.122H139.116V41.184H142.524V44.521H152.535V41.184H155.943V4.122H152.535V0.571997H162.83V4.122H159.422ZM196.505 7.53V4.122H186.494V44.521H189.831V48.071H176.199V44.521H179.607V4.122H169.596V7.53H166.046V0.571997H199.984V7.53H196.505ZM250.587 7.53V4.122H240.576V44.521H243.913V48.071H230.281V44.521H233.689V4.122H223.678V7.53H220.128V0.571997H254.066V7.53H250.587ZM280.945 48.071V44.521H284.353V24.428H267.526V44.521H270.934V48.071H257.302V44.521H260.639V4.122H257.302V0.571997H270.934V4.122H267.526V20.878H284.353V4.122H280.945V0.571997H294.577V4.122H291.24V44.521H294.577V48.071H280.945ZM301.261 48.071V44.521H304.598V4.122H301.261V0.571997H328.454V7.53H324.904V4.122H311.485V20.878H321.496V17.47H325.046V27.765H321.496V24.428H311.485V44.521H324.904V41.184H328.454V48.071H301.261ZM389.139 48.071V44.521H392.476V14.275H389.281V21.02H385.873V27.765H382.536V34.51H379.128V41.326H375.578V34.51H372.241V27.765H368.833V21.02H365.496V14.275H362.23V44.521H365.567V48.071H355.343V44.521H358.68V4.122H355.343V0.571997H365.567V7.388H368.975V14.133H372.383V20.878H375.72V27.623H382.394V20.878H385.731V14.133H389.139V7.388H392.476V0.571997H402.771V4.122H399.434V44.521H402.771V48.071H389.139ZM433.068 48.071V44.521H436.476V37.918H433.068V34.51H416.312V37.918H412.904V44.521H416.312V48.071H406.017V44.521H409.425V37.776H412.762V27.623H416.17V17.47H419.578V7.388H422.915V0.571997H429.802V7.388H433.21V17.47H436.618V27.623H439.955V37.776H443.363V44.521H446.7V48.071H433.068ZM433.068 27.765H429.66V17.612H426.323V10.867H423.057V17.612H419.649V27.765H416.312V31.031H433.068V27.765ZM483.925 27.765V48.071H480.375V44.663H473.772V48.071H460.14V44.663H456.732V41.326H453.324V34.51H449.987V12.429H453.324V7.388H456.732V3.98H460.14V0.571997H480.517V7.53H477.038V4.122H463.619V7.53H460.211V14.275H456.874V34.439H460.211V41.184H463.619V44.521H473.63V41.184H477.038V27.765H473.63V24.286H487.262V27.765H483.925ZM493.946 34.51V0.571997H500.833V34.51H493.946ZM493.946 48.071V41.184H500.833V48.071H493.946Z" fill="#5B81F1"/>
</svg>
