<svg width="992" height="666" viewBox="0 0 992 666" fill="none" xmlns="http://www.w3.org/2000/svg">
<path d="M989.951 215.519C989.951 97.6655 879.229 2.09863 742.672 2.09863H249.231C112.673 2.09863 2 97.6189 2 215.519C2 258.975 17.1029 299.314 42.938 333C17.1029 366.732 2 407.071 2 450.481C2 568.335 112.722 663.901 249.279 663.901H742.721C879.278 663.901 990 568.335 990 450.481C990 407.025 974.897 366.686 949.062 333C974.897 299.268 990 258.929 990 215.519H989.951Z" fill="white" stroke="#231F20" stroke-width="2.3" stroke-miterlimit="10"/>
<path d="M177.598 284.809V283.109H179.196V263.763H177.598V262.063H190.62V265.395H188.92V263.763H182.494V271.787H187.288V270.155H188.988V275.085H187.288V273.487H182.494V283.109H188.92V281.511H190.62V284.809H177.598ZM205.09 284.809V283.177H203.526V284.809H195.366V283.177H193.768V278.281H195.366V276.649H198.63V275.017H203.458V270.223H198.664V271.855H197.066V273.487H195.366V270.155H198.63V268.557H205.158V270.155H206.79V283.109H208.388V284.809H205.09ZM203.458 276.717H198.664V278.315H197.066V283.109H201.86V281.511H203.458V276.717ZM221.356 283.177V284.809H214.828V283.177H213.196V281.579H211.598V271.787H213.196V270.155H214.828V268.557H221.356V270.155H222.988V273.487H219.69V270.223H216.494V271.855H214.896V281.511H216.494V283.109H221.288V281.511H222.988V283.177H221.356ZM235.864 284.809V283.109H237.496V271.855H235.864V270.223H234.334V271.855H232.702V273.487H231.07V283.109H232.702V284.809H226.174V283.109H227.772V265.395H226.174V263.695H227.772V262.063H231.07V271.787H232.634V270.155H234.266V268.557H239.196V270.155H240.794V283.109H242.426V284.809H235.864ZM256.925 265.395V262.063H260.223V265.395H256.925ZM255.327 284.809V283.109H256.925V271.855H255.327V270.155H256.925V268.557H260.223V283.109H261.855V284.809H255.327ZM273.215 283.177V284.809H265.055V281.511H266.721V283.109H271.515V279.947H269.917V278.315H268.285V276.717H266.653V275.085H265.055V270.155H266.653V268.557H274.813V271.855H273.147V270.223H268.353V273.419H269.951V275.017H271.583V276.649H273.215V278.281H274.813V283.177H273.215ZM286.164 283.177V284.809H278.004V281.511H279.67V283.109H284.464V279.947H282.866V278.315H281.234V276.717H279.602V275.085H278.004V270.155H279.602V268.557H287.762V271.855H286.096V270.223H281.302V273.419H282.9V275.017H284.532V276.649H286.164V278.281H287.762V283.177H286.164ZM303.907 284.809V283.177H300.711V284.809H294.183V283.177H292.551V271.855H290.953V270.155H292.551V268.557H295.849V281.511H297.481V283.109H300.643V281.511H302.275V271.855H300.643V270.155H302.275V268.557H305.573V283.109H307.205V284.809H303.907ZM321.767 281.579V283.177H320.135V284.809H313.607V283.177H311.975V281.579H310.377V271.787H311.975V270.155H313.607V268.557H320.135V270.155H321.767V271.787H323.399V276.717H313.675V281.511H315.273V283.109H320.067V281.511H321.699V279.879H323.399V281.579H321.767ZM320.067 271.855H318.469V270.223H315.273V271.855H313.675V275.017H320.067V271.855ZM357.39 270.223V273.487H355.758V278.315H354.126V281.579H352.528V284.809H350.828V281.579H349.23V278.315H347.598V273.487H346.034V278.315H344.436V281.579H342.804V284.809H341.138V281.579H339.506V278.315H337.874V273.487H336.276V270.223H334.644V268.557H341.172V270.223H339.574V273.419H341.172V278.281H344.368V273.419H345.966V270.223H344.368V268.557H350.896V270.223H349.298V273.419H350.896V278.281H354.058V273.419H355.69V270.223H354.058V268.557H358.988V270.223H357.39ZM362.145 265.395V262.063H365.443V265.395H362.145ZM360.547 284.809V283.109H362.145V271.855H360.547V270.155H362.145V268.557H365.443V283.109H367.075V284.809H360.547ZM370.276 284.809V283.109H371.874V265.395H370.276V263.695H371.874V262.063H375.172V283.109H376.804V284.809H370.276ZM380.004 284.809V283.109H381.602V265.395H380.004V263.695H381.602V262.063H384.9V283.109H386.532V284.809H380.004ZM407.553 265.395V263.763H404.357V268.557H407.621V270.223H404.357V283.109H405.989V284.809H399.461V283.109H401.059V270.223H399.461V268.557H401.059V265.327H402.691V263.695H404.323V262.063H409.219V265.395H407.553ZM422.174 281.579V283.177H420.542V284.809H414.014V283.177H412.382V281.579H410.784V271.787H412.382V270.155H414.014V268.557H420.542V270.155H422.174V271.787H423.806V276.717H414.082V281.511H415.68V283.109H420.474V281.511H422.106V279.879H423.806V281.579H422.174ZM420.474 271.855H418.876V270.223H415.68V271.855H414.082V275.017H420.474V271.855ZM438.275 284.809V283.177H436.711V284.809H428.551V283.177H426.953V278.281H428.551V276.649H431.815V275.017H436.643V270.223H431.849V271.855H430.251V273.487H428.551V270.155H431.815V268.557H438.343V270.155H439.975V283.109H441.573V284.809H438.275ZM436.643 276.717H431.849V278.315H430.251V283.109H435.045V281.511H436.643V276.717ZM448.014 284.809V283.177H446.382V270.223H444.784V268.557H446.382V266.925H448.014V265.327H449.68V268.557H452.944V270.223H449.68V283.109H452.944V284.809H448.014ZM469.06 284.809V283.177H465.864V284.809H459.336V283.177H457.704V271.855H456.106V270.155H457.704V268.557H461.002V281.511H462.634V283.109H465.796V281.511H467.428V271.855H465.796V270.155H467.428V268.557H470.726V283.109H472.358V284.809H469.06ZM482.058 271.855V273.487H480.426V283.109H482.058V284.809H475.53V283.109H477.128V271.855H475.53V270.155H477.128V268.557H480.426V271.787H481.99V270.155H483.622V268.557H486.92V271.855H482.058ZM499.869 281.579V283.177H498.237V284.809H491.709V283.177H490.077V281.579H488.479V271.787H490.077V270.155H491.709V268.557H498.237V270.155H499.869V271.787H501.501V276.717H491.777V281.511H493.375V283.109H498.169V281.511H499.801V279.879H501.501V281.579H499.869ZM498.169 271.855H496.571V270.223H493.375V271.855H491.777V275.017H498.169V271.855ZM525.699 284.809V283.177H524.135V284.809H515.975V283.177H514.377V278.281H515.975V276.649H519.239V275.017H524.067V270.223H519.273V271.855H517.675V273.487H515.975V270.155H519.239V268.557H525.767V270.155H527.399V283.109H528.997V284.809H525.699ZM524.067 276.717H519.273V278.315H517.675V283.109H522.469V281.511H524.067V276.717ZM550.096 283.177V284.809H541.936V281.511H543.602V283.109H548.396V279.947H546.798V278.315H545.166V276.717H543.534V275.085H541.936V270.155H543.534V268.557H551.694V271.855H550.028V270.223H545.234V273.419H546.832V275.017H548.464V276.649H550.096V278.281H551.694V283.177H550.096ZM558.115 284.809V283.177H556.483V270.223H554.885V268.557H556.483V266.925H558.115V265.327H559.781V268.557H563.045V270.223H559.781V283.109H563.045V284.809H558.115ZM579.161 284.809V283.177H575.965V284.809H569.437V283.177H567.805V271.855H566.207V270.155H567.805V268.557H571.103V281.511H572.735V283.109H575.897V281.511H577.529V271.855H575.897V270.155H577.529V268.557H580.827V283.109H582.459V284.809H579.161ZM595.321 284.809V283.177H593.791V284.809H588.861V283.177H587.229V281.579H585.631V271.787H587.229V270.155H588.861V268.557H593.791V270.155H595.321V265.395H593.723V263.695H595.321V262.063H598.653V283.109H600.251V284.809H595.321ZM595.321 271.855H593.723V270.223H590.527V271.855H588.929V281.511H590.527V283.109H593.723V281.511H595.321V271.855ZM614.851 281.579V283.177H613.219V284.809H606.691V283.177H605.059V281.579H603.461V271.787H605.059V270.155H606.691V268.557H613.219V270.155H614.851V271.787H616.483V276.717H606.759V281.511H608.357V283.109H613.151V281.511H614.783V279.879H616.483V281.579H614.851ZM613.151 271.855H611.553V270.223H608.357V271.855H606.759V275.017H613.151V271.855ZM629.321 284.809V283.109H630.953V271.855H629.321V270.223H627.791V271.855H626.159V273.487H624.527V283.109H626.159V284.809H619.631V283.109H621.229V271.855H619.631V270.155H621.229V268.557H624.527V271.787H626.091V270.155H627.723V268.557H632.653V270.155H634.251V283.109H635.883V284.809H629.321ZM642.285 284.809V283.177H640.653V270.223H639.055V268.557H640.653V266.925H642.285V265.327H643.951V268.557H647.215V270.223H643.951V283.109H647.215V284.809H642.285ZM671.428 284.809V283.177H669.864V284.809H661.704V283.177H660.106V278.281H661.704V276.649H664.968V275.017H669.796V270.223H665.002V271.855H663.404V273.487H661.704V270.155H664.968V268.557H671.496V270.155H673.128V283.109H674.726V284.809H671.428ZM669.796 276.717H665.002V278.315H663.404V283.109H668.198V281.511H669.796V276.717ZM687.626 284.809V283.109H689.258V271.855H687.626V270.223H686.096V271.855H684.464V273.487H682.832V283.109H684.464V284.809H677.936V283.109H679.534V271.855H677.936V270.155H679.534V268.557H682.832V271.787H684.396V270.155H686.028V268.557H690.958V270.155H692.556V283.109H694.188V284.809H687.626ZM707.05 284.809V283.177H705.52V284.809H700.59V283.177H698.958V281.579H697.36V271.787H698.958V270.155H700.59V268.557H705.52V270.155H707.05V265.395H705.452V263.695H707.05V262.063H710.382V283.109H711.98V284.809H707.05ZM707.05 271.855H705.452V270.223H702.256V271.855H700.658V281.511H702.256V283.109H705.452V281.511H707.05V271.855ZM188.988 326.579V328.177H187.356V329.809H180.828V328.177H179.196V326.579H177.598V316.787H179.196V315.155H180.828V313.557H187.356V315.155H188.988V316.787H190.62V321.717H180.896V326.511H182.494V328.109H187.288V326.511H188.92V324.879H190.62V326.579H188.988ZM187.288 316.855H185.69V315.223H182.494V316.855H180.896V320.017H187.288V316.855ZM201.86 329.809V328.109H203.458V326.579H201.86V324.947H200.228V323.315H198.664V324.947H197.066V326.579H195.434V328.109H197.066V329.809H192.136V328.109H193.768V326.511H195.366V324.879H196.998V323.281H198.63V321.717H196.998V318.487H195.366V316.855H193.768V315.223H192.136V313.557H198.664V315.223H197.066V316.787H198.664V318.419H200.296V320.017H201.86V318.419H203.458V316.787H205.09V315.223H203.458V313.557H208.388V315.223H206.79V316.855H205.158V318.487H203.526V320.085H201.928V321.649H203.526V324.879H205.158V326.511H206.79V328.109H208.388V329.809H201.86ZM222.96 326.579V328.177H221.328V329.809H216.398V328.177H214.834V332.971H216.466V334.671H209.938V332.971H211.536V316.855H209.938V315.155H211.536V313.557H214.834V315.155H216.398V313.557H221.328V315.155H222.96V316.787H224.558V326.579H222.96ZM221.26 316.855H219.628V315.223H216.466V316.855H214.834V326.511H216.466V328.109H219.628V326.511H221.26V316.855ZM239.158 326.579V328.177H237.526V329.809H230.998V328.177H229.366V326.579H227.768V316.787H229.366V315.155H230.998V313.557H237.526V315.155H239.158V316.787H240.79V321.717H231.066V326.511H232.664V328.109H237.458V326.511H239.09V324.879H240.79V326.579H239.158ZM237.458 316.855H235.86V315.223H232.664V316.855H231.066V320.017H237.458V316.855ZM250.466 316.855V318.487H248.834V328.109H250.466V329.809H243.938V328.109H245.536V316.855H243.938V315.155H245.536V313.557H248.834V316.787H250.398V315.155H252.03V313.557H255.328V316.855H250.466ZM258.485 310.395V307.063H261.783V310.395H258.485ZM256.887 329.809V328.109H258.485V316.855H256.887V315.155H258.485V313.557H261.783V328.109H263.415V329.809H256.887ZM278.006 326.579V328.177H276.374V329.809H269.846V328.177H268.214V326.579H266.616V316.787H268.214V315.155H269.846V313.557H276.374V315.155H278.006V316.787H279.638V321.717H269.914V326.511H271.512V328.109H276.306V326.511H277.938V324.879H279.638V326.579H278.006ZM276.306 316.855H274.708V315.223H271.512V316.855H269.914V320.017H276.306V316.855ZM292.476 329.809V328.109H294.108V316.855H292.476V315.223H290.946V316.855H289.314V318.487H287.682V328.109H289.314V329.809H282.786V328.109H284.384V316.855H282.786V315.155H284.384V313.557H287.682V316.787H289.246V315.155H290.878V313.557H295.808V315.155H297.406V328.109H299.038V329.809H292.476ZM311.967 328.177V329.809H305.439V328.177H303.807V326.579H302.209V316.787H303.807V315.155H305.439V313.557H311.967V315.155H313.599V318.487H310.301V315.223H307.105V316.855H305.507V326.511H307.105V328.109H311.899V326.511H313.599V328.177H311.967ZM328.176 326.579V328.177H326.544V329.809H320.016V328.177H318.384V326.579H316.786V316.787H318.384V315.155H320.016V313.557H326.544V315.155H328.176V316.787H329.808V321.717H320.084V326.511H321.682V328.109H326.476V326.511H328.108V324.879H329.808V326.579H328.176ZM326.476 316.855H324.878V315.223H321.682V316.855H320.084V320.017H326.476V316.855ZM342.645 329.809V328.177H341.115V329.809H336.185V328.177H334.553V326.579H332.955V316.787H334.553V315.155H336.185V313.557H341.115V315.155H342.645V310.395H341.047V308.695H342.645V307.063H345.977V328.109H347.575V329.809H342.645ZM342.645 316.855H341.047V315.223H337.851V316.855H336.253V326.511H337.851V328.109H341.047V326.511H342.645V316.855ZM373.536 326.579V328.177H371.904V329.809H366.974V328.177H365.41V332.971H367.042V334.671H360.514V332.971H362.112V316.855H360.514V315.155H362.112V313.557H365.41V315.155H366.974V313.557H371.904V315.155H373.536V316.787H375.134V326.579H373.536ZM371.836 316.855H370.204V315.223H367.042V316.855H365.41V326.511H367.042V328.109H370.204V326.511H371.836V316.855ZM384.872 316.855V318.487H383.24V328.109H384.872V329.809H378.344V328.109H379.942V316.855H378.344V315.155H379.942V313.557H383.24V316.787H384.804V315.155H386.436V313.557H389.734V316.855H384.872ZM404.315 324.947V328.177H401.051V329.809H396.155V328.177H392.891V324.947H391.293V318.419H392.891V315.155H396.155V313.557H401.051V315.155H404.315V318.419H405.913V324.947H404.315ZM402.615 318.487H400.983V315.223H396.189V318.487H394.591V324.879H396.189V328.109H400.983V324.879H402.615V318.487ZM417.215 310.395V308.763H414.019V313.557H417.283V315.223H414.019V328.109H415.651V329.809H409.123V328.109H410.721V315.223H409.123V313.557H410.721V310.327H412.353V308.695H413.985V307.063H418.881V310.395H417.215ZM431.836 326.579V328.177H430.204V329.809H423.676V328.177H422.044V326.579H420.446V316.787H422.044V315.155H423.676V313.557H430.204V315.155H431.836V316.787H433.468V321.717H423.744V326.511H425.342V328.109H430.136V326.511H431.768V324.879H433.468V326.579H431.836ZM430.136 316.855H428.538V315.223H425.342V316.855H423.744V320.017H430.136V316.855ZM444.776 328.177V329.809H436.616V326.511H438.282V328.109H443.076V324.947H441.478V323.315H439.846V321.717H438.214V320.085H436.616V315.155H438.214V313.557H446.374V316.855H444.708V315.223H439.914V318.419H441.512V320.017H443.144V321.649H444.776V323.281H446.374V328.177H444.776ZM457.725 328.177V329.809H449.565V326.511H451.231V328.109H456.025V324.947H454.427V323.315H452.795V321.717H451.163V320.085H449.565V315.155H451.163V313.557H459.323V316.855H457.657V315.223H452.863V318.419H454.461V320.017H456.093V321.649H457.725V323.281H459.323V328.177H457.725ZM464.112 310.395V307.063H467.41V310.395H464.112ZM462.514 329.809V328.109H464.112V316.855H462.514V315.155H464.112V313.557H467.41V328.109H469.042V329.809H462.514ZM485.265 324.947V328.177H482.001V329.809H477.105V328.177H473.841V324.947H472.243V318.419H473.841V315.155H477.105V313.557H482.001V315.155H485.265V318.419H486.863V324.947H485.265ZM483.565 318.487H481.933V315.223H477.139V318.487H475.541V324.879H477.139V328.109H481.933V324.879H483.565V318.487ZM499.763 329.809V328.109H501.395V316.855H499.763V315.223H498.233V316.855H496.601V318.487H494.969V328.109H496.601V329.809H490.073V328.109H491.671V316.855H490.073V315.155H491.671V313.557H494.969V316.787H496.533V315.155H498.165V313.557H503.095V315.155H504.693V328.109H506.325V329.809H499.763ZM520.818 329.809V328.177H519.254V329.809H511.094V328.177H509.496V323.281H511.094V321.649H514.358V320.017H519.186V315.223H514.392V316.855H512.794V318.487H511.094V315.155H514.358V313.557H520.886V315.155H522.518V328.109H524.116V329.809H520.818ZM519.186 321.717H514.392V323.315H512.794V328.109H517.588V326.511H519.186V321.717ZM527.327 329.809V328.109H528.925V310.395H527.327V308.695H528.925V307.063H532.223V328.109H533.855V329.809H527.327ZM554.876 310.395V308.763H551.68V313.557H554.944V315.223H551.68V328.109H553.312V329.809H546.784V328.109H548.382V315.223H546.784V313.557H548.382V310.327H550.014V308.695H551.646V307.063H556.542V310.395H554.876ZM564.634 316.855V318.487H563.002V328.109H564.634V329.809H558.106V328.109H559.704V316.855H558.106V315.155H559.704V313.557H563.002V316.787H564.566V315.155H566.198V313.557H569.496V316.855H564.634ZM584.077 324.947V328.177H580.813V329.809H575.917V328.177H572.653V324.947H571.055V318.419H572.653V315.155H575.917V313.557H580.813V315.155H584.077V318.419H585.675V324.947H584.077ZM582.377 318.487H580.745V315.223H575.951V318.487H574.353V324.879H575.951V328.109H580.745V324.879H582.377V318.487ZM605.069 329.809V328.109H606.667V316.855H605.069V315.223H603.505V316.855H601.907V328.109H603.505V329.809H596.977V328.109H598.575V316.855H596.977V315.223H595.413V316.855H593.781V328.109H595.413V329.809H588.885V328.109H590.483V316.855H588.885V315.155H590.483V313.557H593.781V315.155H595.345V313.557H600.275V315.155H603.437V313.557H608.367V315.155H609.999V328.109H611.597V329.809H605.069ZM634.202 329.809V328.177H632.672V329.809H627.742V328.177H626.11V326.579H624.512V316.787H626.11V315.155H627.742V313.557H632.672V315.155H634.202V310.395H632.604V308.695H634.202V307.063H637.534V328.109H639.132V329.809H634.202ZM634.202 316.855H632.604V315.223H629.408V316.855H627.81V326.511H629.408V328.109H632.604V326.511H634.202V316.855ZM643.94 310.395V307.063H647.238V310.395H643.94ZM642.342 329.809V328.109H643.94V316.855H642.342V315.155H643.94V313.557H647.238V328.109H648.87V329.809H642.342ZM663.461 315.223V318.487H661.829V323.315H660.231V326.579H658.599V329.809H656.933V326.579H655.301V323.315H653.669V318.487H652.071V315.223H650.439V313.557H656.967V315.223H655.369V318.419H656.967V323.281H660.163V318.419H661.761V315.223H660.163V313.557H665.093V315.223H663.461ZM678.037 326.579V328.177H676.405V329.809H669.877V328.177H668.245V326.579H666.647V316.787H668.245V315.155H669.877V313.557H676.405V315.155H678.037V316.787H679.669V321.717H669.945V326.511H671.543V328.109H676.337V326.511H677.969V324.879H679.669V326.579H678.037ZM676.337 316.855H674.739V315.223H671.543V316.855H669.945V320.017H676.337V316.855ZM689.345 316.855V318.487H687.713V328.109H689.345V329.809H682.817V328.109H684.415V316.855H682.817V315.155H684.415V313.557H687.713V316.787H689.277V315.155H690.909V313.557H694.207V316.855H689.345ZM703.926 328.177V329.809H695.766V326.511H697.432V328.109H702.226V324.947H700.628V323.315H698.996V321.717H697.364V320.085H695.766V315.155H697.364V313.557H705.524V316.855H703.858V315.223H699.064V318.419H700.662V320.017H702.294V321.649H703.926V323.281H705.524V328.177H703.926ZM720.105 326.579V328.177H718.473V329.809H711.945V328.177H710.313V326.579H708.715V316.787H710.313V315.155H711.945V313.557H718.473V315.155H720.105V316.787H721.737V321.717H712.013V326.511H713.611V328.109H718.405V326.511H720.037V324.879H721.737V326.579H720.105ZM718.405 316.855H716.807V315.223H713.611V316.855H712.013V320.017H718.405V316.855ZM190.62 371.579V373.177H188.988V374.809H182.46V373.177H180.896V374.809H179.196V355.395H177.598V353.695H179.196V352.063H182.494V360.155H184.058V358.557H188.988V360.155H190.62V361.787H192.218V371.579H190.62ZM188.92 361.855H187.288V360.223H184.126V361.855H182.494V373.109H187.288V371.511H188.92V361.855ZM206.75 374.809V373.177H205.186V374.809H197.026V373.177H195.428V368.281H197.026V366.649H200.29V365.017H205.118V360.223H200.324V361.855H198.726V363.487H197.026V360.155H200.29V358.557H206.818V360.155H208.45V373.109H210.048V374.809H206.75ZM205.118 366.717H200.324V368.315H198.726V373.109H203.52V371.511H205.118V366.717ZM223.016 373.177V374.809H216.488V373.177H214.856V371.579H213.258V361.787H214.856V360.155H216.488V358.557H223.016V360.155H224.648V363.487H221.35V360.223H218.154V361.855H216.556V371.511H218.154V373.109H222.948V371.511H224.648V373.177H223.016ZM239.156 374.809V373.177H237.524V371.579H235.926V369.947H234.294V368.315H232.73V373.109H234.362V374.809H227.834V373.109H229.432V355.395H227.834V353.695H229.432V352.063H232.73V365.017H234.294V363.419H235.926V361.787H237.524V360.223H235.926V358.557H240.856V360.223H239.224V361.855H237.592V363.487H235.994V365.085H234.362V366.649H235.994V368.281H237.592V369.879H239.224V371.511H240.856V373.109H242.454V374.809H239.156ZM257.054 360.223V361.787H258.686V365.085H257.054V366.717H255.422V368.315H250.56V369.879H257.054V371.511H258.686V376.441H257.054V378.039H255.422V379.671H247.262V378.039H245.664V374.741H247.262V373.109H248.894V371.579H247.262V368.281H248.894V366.717H247.262V365.085H245.664V361.787H247.262V360.155H248.894V358.557H255.422V360.155H256.986V358.557H260.284V360.223H257.054ZM255.354 361.855H253.756V360.223H250.56V361.855H248.962V365.017H250.56V366.649H253.756V365.017H255.354V361.855ZM256.986 373.177H248.962V374.809H247.33V376.373H248.962V377.971H255.354V376.373H256.986V373.177ZM268.362 361.855V363.487H266.73V373.109H268.362V374.809H261.834V373.109H263.432V361.855H261.834V360.155H263.432V358.557H266.73V361.787H268.294V360.155H269.926V358.557H273.224V361.855H268.362ZM287.806 369.947V373.177H284.542V374.809H279.646V373.177H276.382V369.947H274.784V363.419H276.382V360.155H279.646V358.557H284.542V360.155H287.806V363.419H289.404V369.947H287.806ZM286.106 363.487H284.474V360.223H279.68V363.487H278.082V369.879H279.68V373.109H284.474V369.879H286.106V363.487ZM305.568 374.809V373.177H302.372V374.809H295.844V373.177H294.212V361.855H292.614V360.155H294.212V358.557H297.51V371.511H299.142V373.109H302.304V371.511H303.936V361.855H302.304V360.155H303.936V358.557H307.234V373.109H308.866V374.809H305.568ZM321.727 374.809V373.109H323.359V361.855H321.727V360.223H320.197V361.855H318.565V363.487H316.933V373.109H318.565V374.809H312.037V373.109H313.635V361.855H312.037V360.155H313.635V358.557H316.933V361.787H318.497V360.155H320.129V358.557H325.059V360.155H326.657V373.109H328.289V374.809H321.727ZM341.151 374.809V373.177H339.621V374.809H334.691V373.177H333.059V371.579H331.461V361.787H333.059V360.155H334.691V358.557H339.621V360.155H341.151V355.395H339.553V353.695H341.151V352.063H344.483V373.109H346.081V374.809H341.151ZM341.151 361.855H339.553V360.223H336.357V361.855H334.759V371.511H336.357V373.109H339.553V371.511H341.151V361.855ZM357.451 373.177V374.809H349.291V371.511H350.957V373.109H355.751V369.947H354.153V368.315H352.521V366.717H350.889V365.085H349.291V360.155H350.889V358.557H359.049V361.855H357.383V360.223H352.589V363.419H354.187V365.017H355.819V366.649H357.451V368.281H359.049V373.177H357.451ZM383.291 374.809V373.177H381.727V374.809H373.567V373.177H371.969V368.281H373.567V366.649H376.831V365.017H381.659V360.223H376.865V361.855H375.267V363.487H373.567V360.155H376.831V358.557H383.359V360.155H384.991V373.109H386.589V374.809H383.291ZM381.659 366.717H376.865V368.315H375.267V373.109H380.061V371.511H381.659V366.717ZM399.489 374.809V373.109H401.121V361.855H399.489V360.223H397.959V361.855H396.327V363.487H394.695V373.109H396.327V374.809H389.799V373.109H391.397V361.855H389.799V360.155H391.397V358.557H394.695V361.787H396.259V360.155H397.891V358.557H402.821V360.155H404.419V373.109H406.051V374.809H399.489ZM418.913 374.809V373.177H417.383V374.809H412.453V373.177H410.821V371.579H409.223V361.787H410.821V360.155H412.453V358.557H417.383V360.155H418.913V355.395H417.315V353.695H418.913V352.063H422.245V373.109H423.843V374.809H418.913ZM418.913 361.855H417.315V360.223H414.119V361.855H412.521V371.511H414.119V373.109H417.315V371.511H418.913V361.855ZM446.54 373.177V374.809H440.012V373.177H438.38V371.579H436.782V361.787H438.38V360.155H440.012V358.557H446.54V360.155H448.172V363.487H444.874V360.223H441.678V361.855H440.08V371.511H441.678V373.109H446.472V371.511H448.172V373.177H446.54ZM462.68 374.809V373.177H461.116V374.809H452.956V373.177H451.358V368.281H452.956V366.649H456.22V365.017H461.048V360.223H456.254V361.855H454.656V363.487H452.956V360.155H456.22V358.557H462.748V360.155H464.38V373.109H465.978V374.809H462.68ZM461.048 366.717H456.254V368.315H454.656V373.109H459.45V371.511H461.048V366.717ZM475.716 361.855V363.487H474.084V373.109H475.716V374.809H469.188V373.109H470.786V361.855H469.188V360.155H470.786V358.557H474.084V361.787H475.648V360.155H477.28V358.557H480.578V361.855H475.716ZM493.527 371.579V373.177H491.895V374.809H485.367V373.177H483.735V371.579H482.137V361.787H483.735V360.155H485.367V358.557H491.895V360.155H493.527V361.787H495.159V366.717H485.435V371.511H487.033V373.109H491.827V371.511H493.459V369.879H495.159V371.579H493.527ZM491.827 361.855H490.229V360.223H487.033V361.855H485.435V365.017H491.827V361.855ZM509.697 371.579V373.177H508.065V374.809H501.537V373.177H499.905V371.579H498.307V361.787H499.905V360.155H501.537V358.557H508.065V360.155H509.697V361.787H511.329V366.717H501.605V371.511H503.203V373.109H507.997V371.511H509.629V369.879H511.329V371.579H509.697ZM507.997 361.855H506.399V360.223H503.203V361.855H501.605V365.017H507.997V361.855ZM521.005 361.855V363.487H519.373V373.109H521.005V374.809H514.477V373.109H516.075V361.855H514.477V360.155H516.075V358.557H519.373V361.787H520.937V360.155H522.569V358.557H525.867V361.855H521.005ZM550.177 371.579V373.177H548.545V374.809H543.615V373.177H542.051V377.971H543.683V379.671H537.155V377.971H538.753V361.855H537.155V360.155H538.753V358.557H542.051V360.155H543.615V358.557H548.545V360.155H550.177V361.787H551.775V371.579H550.177ZM548.477 361.855H546.845V360.223H543.683V361.855H542.051V371.511H543.683V373.109H546.845V371.511H548.477V361.855ZM566.307 374.809V373.177H564.743V374.809H556.583V373.177H554.985V368.281H556.583V366.649H559.847V365.017H564.675V360.223H559.881V361.855H558.283V363.487H556.583V360.155H559.847V358.557H566.375V360.155H568.007V373.109H569.605V374.809H566.307ZM564.675 366.717H559.881V368.315H558.283V373.109H563.077V371.511H564.675V366.717ZM576.045 374.809V373.177H574.413V360.223H572.815V358.557H574.413V356.925H576.045V355.327H577.711V358.557H580.975V360.223H577.711V373.109H580.975V374.809H576.045ZM593.827 374.809V373.109H595.459V361.855H593.827V360.223H592.297V361.855H590.665V363.487H589.033V373.109H590.665V374.809H584.137V373.109H585.735V355.395H584.137V353.695H585.735V352.063H589.033V361.787H590.597V360.155H592.229V358.557H597.159V360.155H598.757V373.109H600.389V374.809H593.827ZM611.721 373.177V374.809H603.561V371.511H605.227V373.109H610.021V369.947H608.423V368.315H606.791V366.717H605.159V365.085H603.561V360.155H605.159V358.557H613.319V361.855H611.653V360.223H606.859V363.419H608.457V365.017H610.089V366.649H611.721V368.281H613.319V373.177H611.721ZM616.51 374.809V371.511H619.808V374.809H616.51ZM645.662 355.395V353.763H639.236V361.787H644.03V360.155H645.73V365.085H644.03V363.487H639.236V373.109H640.868V374.809H634.34V373.109H635.938V353.763H634.34V352.063H647.362V355.395H645.662ZM661.938 369.947V373.177H658.674V374.809H653.778V373.177H650.514V369.947H648.916V363.419H650.514V360.155H653.778V358.557H658.674V360.155H661.938V363.419H663.536V369.947H661.938ZM660.238 363.487H658.606V360.223H653.812V363.487H652.214V369.879H653.812V373.109H658.606V369.879H660.238V363.487ZM673.274 361.855V363.487H671.642V373.109H673.274V374.809H666.746V373.109H668.344V361.855H666.746V360.155H668.344V358.557H671.642V361.787H673.206V360.155H674.838V358.557H678.136V361.855H673.274ZM691.086 371.579V373.177H689.454V374.809H682.926V373.177H681.294V371.579H679.696V361.787H681.294V360.155H682.926V358.557H689.454V360.155H691.086V361.787H692.718V366.717H682.994V371.511H684.592V373.109H689.386V371.511H691.018V369.879H692.718V371.579H691.086ZM689.386 361.855H687.788V360.223H684.592V361.855H682.994V365.017H689.386V361.855ZM704.026 373.177V374.809H695.866V371.511H697.532V373.109H702.326V369.947H700.728V368.315H699.096V366.717H697.464V365.085H695.866V360.155H697.464V358.557H705.624V361.855H703.958V360.223H699.164V363.419H700.762V365.017H702.394V366.649H704.026V368.281H705.624V373.177H704.026ZM710.413 355.395V352.063H713.711V355.395H710.413ZM708.815 374.809V373.109H710.413V361.855H708.815V360.155H710.413V358.557H713.711V373.109H715.343V374.809H708.815ZM729.933 360.223V361.787H731.565V365.085H729.933V366.717H728.301V368.315H723.439V369.879H729.933V371.511H731.565V376.441H729.933V378.039H728.301V379.671H720.141V378.039H718.543V374.741H720.141V373.109H721.773V371.579H720.141V368.281H721.773V366.717H720.141V365.085H718.543V361.787H720.141V360.155H721.773V358.557H728.301V360.155H729.865V358.557H733.163V360.223H729.933ZM728.233 361.855H726.635V360.223H723.439V361.855H721.841V365.017H723.439V366.649H726.635V365.017H728.233V361.855ZM729.865 373.177H721.841V374.809H720.209V376.373H721.841V377.971H728.233V376.373H729.865V373.177ZM744.403 374.809V373.109H746.035V361.855H744.403V360.223H742.873V361.855H741.241V363.487H739.609V373.109H741.241V374.809H734.713V373.109H736.311V355.395H734.713V353.695H736.311V352.063H739.609V361.787H741.173V360.155H742.805V358.557H747.735V360.155H749.333V373.109H750.965V374.809H744.403ZM757.367 374.809V373.177H755.735V360.223H754.137V358.557H755.735V356.925H757.367V355.327H759.033V358.557H762.297V360.223H759.033V373.109H762.297V374.809H757.367ZM179.196 400.395V397.063H182.494V400.395H179.196ZM177.598 419.809V418.109H179.196V406.855H177.598V405.155H179.196V403.557H182.494V418.109H184.126V419.809H177.598ZM197.017 419.809V418.109H198.649V406.855H197.017V405.223H195.487V406.855H193.855V408.487H192.223V418.109H193.855V419.809H187.327V418.109H188.925V406.855H187.327V405.155H188.925V403.557H192.223V406.787H193.787V405.155H195.419V403.557H200.349V405.155H201.947V418.109H203.579V419.809H197.017ZM209.98 419.809V418.177H208.348V405.223H206.75V403.557H208.348V401.925H209.98V400.327H211.646V403.557H214.91V405.223H211.646V418.109H214.91V419.809H209.98ZM229.463 416.579V418.177H227.831V419.809H221.303V418.177H219.671V416.579H218.073V406.787H219.671V405.155H221.303V403.557H227.831V405.155H229.463V406.787H231.095V411.717H221.371V416.511H222.969V418.109H227.763V416.511H229.395V414.879H231.095V416.579H229.463ZM227.763 406.855H226.165V405.223H222.969V406.855H221.371V410.017H227.763V406.855ZM243.933 419.809V418.109H245.565V406.855H243.933V405.223H242.403V406.855H240.771V408.487H239.139V418.109H240.771V419.809H234.243V418.109H235.841V406.855H234.243V405.155H235.841V403.557H239.139V406.787H240.703V405.155H242.335V403.557H247.265V405.155H248.863V418.109H250.495V419.809H243.933ZM263.356 419.809V418.177H261.826V419.809H256.896V418.177H255.264V416.579H253.666V406.787H255.264V405.155H256.896V403.557H261.826V405.155H263.356V400.395H261.758V398.695H263.356V397.063H266.688V418.109H268.286V419.809H263.356ZM263.356 406.855H261.758V405.223H258.562V406.855H256.964V416.511H258.562V418.109H261.758V416.511H263.356V406.855ZM279.656 418.177V419.809H271.496V416.511H273.162V418.109H277.956V414.947H276.358V413.315H274.726V411.717H273.094V410.085H271.496V405.155H273.094V403.557H281.254V406.855H279.588V405.223H274.794V408.419H276.392V410.017H278.024V411.649H279.656V413.281H281.254V418.177H279.656ZM297.404 419.809V418.177H295.772V405.223H294.174V403.557H295.772V401.925H297.404V400.327H299.07V403.557H302.334V405.223H299.07V418.109H302.334V419.809H297.404ZM318.518 414.947V418.177H315.254V419.809H310.358V418.177H307.094V414.947H305.496V408.419H307.094V405.155H310.358V403.557H315.254V405.155H318.518V408.419H320.116V414.947H318.518ZM316.818 408.487H315.186V405.223H310.392V408.487H308.794V414.879H310.392V418.109H315.186V414.879H316.818V408.487ZM341.215 418.177V419.809H333.055V416.511H334.721V418.109H339.515V414.947H337.917V413.315H336.285V411.717H334.653V410.085H333.055V405.155H334.653V403.557H342.813V406.855H341.147V405.223H336.353V408.419H337.951V410.017H339.583V411.649H341.215V413.281H342.813V418.177H341.215ZM349.234 419.809V418.177H347.602V405.223H346.004V403.557H347.602V401.925H349.234V400.327H350.9V403.557H354.164V405.223H350.9V418.109H354.164V419.809H349.234ZM363.855 406.855V408.487H362.223V418.109H363.855V419.809H357.327V418.109H358.925V406.855H357.327V405.155H358.925V403.557H362.223V406.787H363.787V405.155H365.419V403.557H368.717V406.855H363.855ZM381.666 416.579V418.177H380.034V419.809H373.506V418.177H371.874V416.579H370.276V406.787H371.874V405.155H373.506V403.557H380.034V405.155H381.666V406.787H383.298V411.717H373.574V416.511H375.172V418.109H379.966V416.511H381.598V414.879H383.298V416.579H381.666ZM379.966 406.855H378.368V405.223H375.172V406.855H373.574V410.017H379.966V406.855ZM396.136 419.809V418.109H397.768V406.855H396.136V405.223H394.606V406.855H392.974V408.487H391.342V418.109H392.974V419.809H386.446V418.109H388.044V406.855H386.446V405.155H388.044V403.557H391.342V406.787H392.906V405.155H394.538V403.557H399.468V405.155H401.066V418.109H402.698V419.809H396.136ZM417.259 405.223V406.787H418.891V410.085H417.259V411.717H415.627V413.315H410.765V414.879H417.259V416.511H418.891V421.441H417.259V423.039H415.627V424.671H407.467V423.039H405.869V419.741H407.467V418.109H409.099V416.579H407.467V413.281H409.099V411.717H407.467V410.085H405.869V406.787H407.467V405.155H409.099V403.557H415.627V405.155H417.191V403.557H420.489V405.223H417.259ZM415.559 406.855H413.961V405.223H410.765V406.855H409.167V410.017H410.765V411.649H413.961V410.017H415.559V406.855ZM417.191 418.177H409.167V419.809H407.535V421.373H409.167V422.971H415.559V421.373H417.191V418.177ZM425.269 419.809V418.177H423.637V405.223H422.039V403.557H423.637V401.925H425.269V400.327H426.935V403.557H430.199V405.223H426.935V418.109H430.199V419.809H425.269ZM443.052 419.809V418.109H444.684V406.855H443.052V405.223H441.522V406.855H439.89V408.487H438.258V418.109H439.89V419.809H433.362V418.109H434.96V400.395H433.362V398.695H434.96V397.063H438.258V406.787H439.822V405.155H441.454V403.557H446.384V405.155H447.982V418.109H449.614V419.809H443.052ZM464.176 416.579V418.177H462.544V419.809H456.016V418.177H454.384V416.579H452.786V406.787H454.384V405.155H456.016V403.557H462.544V405.155H464.176V406.787H465.808V411.717H456.084V416.511H457.682V418.109H462.476V416.511H464.108V414.879H465.808V416.579H464.176ZM462.476 406.855H460.878V405.223H457.682V406.855H456.084V410.017H462.476V406.855ZM478.645 419.809V418.109H480.277V406.855H478.645V405.223H477.115V406.855H475.483V408.487H473.851V418.109H475.483V419.809H468.955V418.109H470.553V406.855H468.955V405.155H470.553V403.557H473.851V406.787H475.415V405.155H477.047V403.557H481.977V405.155H483.575V418.109H485.207V419.809H478.645ZM509.498 405.223V408.487H507.866V413.315H506.268V416.579H504.636V421.441H503.004V424.671H499.706V421.373H502.97V416.579H501.338V413.315H499.706V408.487H498.108V405.223H496.476V403.557H503.004V405.223H501.406V408.419H503.004V413.281H506.2V408.419H507.798V405.223H506.2V403.557H511.13V405.223H509.498ZM525.706 414.947V418.177H522.442V419.809H517.546V418.177H514.282V414.947H512.684V408.419H514.282V405.155H517.546V403.557H522.442V405.155H525.706V408.419H527.304V414.947H525.706ZM524.006 408.487H522.374V405.223H517.58V408.487H515.982V414.879H517.58V418.109H522.374V414.879H524.006V408.487ZM543.468 419.809V418.177H540.272V419.809H533.744V418.177H532.112V406.855H530.514V405.155H532.112V403.557H535.41V416.511H537.042V418.109H540.204V416.511H541.836V406.855H540.204V405.155H541.836V403.557H545.134V418.109H546.766V419.809H543.468ZM556.466 406.855V408.487H554.834V418.109H556.466V419.809H549.938V418.109H551.536V406.855H549.938V405.155H551.536V403.557H554.834V406.787H556.398V405.155H558.03V403.557H561.328V406.855H556.466ZM585.57 419.809V418.177H582.374V419.809H575.846V418.177H574.214V406.855H572.616V405.155H574.214V403.557H577.512V416.511H579.144V418.109H582.306V416.511H583.938V406.855H582.306V405.155H583.938V403.557H587.236V418.109H588.868V419.809H585.57ZM601.729 419.809V418.109H603.361V406.855H601.729V405.223H600.199V406.855H598.567V408.487H596.935V418.109H598.567V419.809H592.039V418.109H593.637V406.855H592.039V405.155H593.637V403.557H596.935V406.787H598.499V405.155H600.131V403.557H605.061V405.155H606.659V418.109H608.291V419.809H601.729ZM621.153 419.809V418.177H619.623V419.809H614.693V418.177H613.061V416.579H611.463V406.787H613.061V405.155H614.693V403.557H619.623V405.155H621.153V400.395H619.555V398.695H621.153V397.063H624.485V418.109H626.083V419.809H621.153ZM621.153 406.855H619.555V405.223H616.359V406.855H614.761V416.511H616.359V418.109H619.555V416.511H621.153V406.855ZM640.683 416.579V418.177H639.051V419.809H632.523V418.177H630.891V416.579H629.293V406.787H630.891V405.155H632.523V403.557H639.051V405.155H640.683V406.787H642.315V411.717H632.591V416.511H634.189V418.109H638.983V416.511H640.615V414.879H642.315V416.579H640.683ZM638.983 406.855H637.385V405.223H634.189V406.855H632.591V410.017H638.983V406.855ZM651.991 406.855V408.487H650.359V418.109H651.991V419.809H645.463V418.109H647.061V406.855H645.463V405.155H647.061V403.557H650.359V406.787H651.923V405.155H653.555V403.557H656.853V406.855H651.991ZM666.572 418.177V419.809H658.412V416.511H660.078V418.109H664.872V414.947H663.274V413.315H661.642V411.717H660.01V410.085H658.412V405.155H660.01V403.557H668.17V406.855H666.504V405.223H661.71V408.419H663.308V410.017H664.94V411.649H666.572V413.281H668.17V418.177H666.572ZM674.592 419.809V418.177H672.96V405.223H671.362V403.557H672.96V401.925H674.592V400.327H676.258V403.557H679.522V405.223H676.258V418.109H679.522V419.809H674.592ZM694.006 419.809V418.177H692.442V419.809H684.282V418.177H682.684V413.281H684.282V411.649H687.546V410.017H692.374V405.223H687.58V406.855H685.982V408.487H684.282V405.155H687.546V403.557H694.074V405.155H695.706V418.109H697.304V419.809H694.006ZM692.374 411.717H687.58V413.315H685.982V418.109H690.776V416.511H692.374V411.717ZM710.204 419.809V418.109H711.836V406.855H710.204V405.223H708.674V406.855H707.042V408.487H705.41V418.109H707.042V419.809H700.514V418.109H702.112V406.855H700.514V405.155H702.112V403.557H705.41V406.787H706.974V405.155H708.606V403.557H713.536V405.155H715.134V418.109H716.766V419.809H710.204ZM729.628 419.809V418.177H728.098V419.809H723.168V418.177H721.536V416.579H719.938V406.787H721.536V405.155H723.168V403.557H728.098V405.155H729.628V400.395H728.03V398.695H729.628V397.063H732.96V418.109H734.558V419.809H729.628ZM729.628 406.855H728.03V405.223H724.834V406.855H723.236V416.511H724.834V418.109H728.03V416.511H729.628V406.855ZM739.366 400.395V397.063H742.664V400.395H739.366ZM737.768 419.809V418.109H739.366V406.855H737.768V405.155H739.366V403.557H742.664V418.109H744.296V419.809H737.768ZM757.186 419.809V418.109H758.818V406.855H757.186V405.223H755.656V406.855H754.024V408.487H752.392V418.109H754.024V419.809H747.496V418.109H749.094V406.855H747.496V405.155H749.094V403.557H752.392V406.787H753.956V405.155H755.588V403.557H760.518V405.155H762.116V418.109H763.748V419.809H757.186ZM778.31 405.223V406.787H779.942V410.085H778.31V411.717H776.678V413.315H771.816V414.879H778.31V416.511H779.942V421.441H778.31V423.039H776.678V424.671H768.518V423.039H766.92V419.741H768.518V418.109H770.15V416.579H768.518V413.281H770.15V411.717H768.518V410.085H766.92V406.787H768.518V405.155H770.15V403.557H776.678V405.155H778.242V403.557H781.54V405.223H778.31ZM776.61 406.855H775.012V405.223H771.816V406.855H770.218V410.017H771.816V411.649H775.012V410.017H776.61V406.855ZM778.242 418.177H770.218V419.809H768.586V421.373H770.218V422.971H776.61V421.373H778.242V418.177ZM190.62 459.947V463.177H187.356V464.809H182.46V463.177H179.196V459.947H177.598V453.419H179.196V450.155H182.46V448.557H187.356V450.155H190.62V453.419H192.218V459.947H190.62ZM188.92 453.487H187.288V450.223H182.494V453.487H180.896V459.879H182.494V463.109H187.288V459.879H188.92V453.487ZM203.52 445.395V443.763H200.324V448.557H203.588V450.223H200.324V463.109H201.956V464.809H195.428V463.109H197.026V450.223H195.428V448.557H197.026V445.327H198.658V443.695H200.29V442.063H205.186V445.395H203.52ZM227.869 450.223V453.487H226.237V458.315H224.639V461.579H223.007V466.441H221.375V469.671H218.077V466.373H221.341V461.579H219.709V458.315H218.077V453.487H216.479V450.223H214.847V448.557H221.375V450.223H219.777V453.419H221.375V458.281H224.571V453.419H226.169V450.223H224.571V448.557H229.501V450.223H227.869ZM244.077 459.947V463.177H240.813V464.809H235.917V463.177H232.653V459.947H231.055V453.419H232.653V450.155H235.917V448.557H240.813V450.155H244.077V453.419H245.675V459.947H244.077ZM242.377 453.487H240.745V450.223H235.951V453.487H234.353V459.879H235.951V463.109H240.745V459.879H242.377V453.487ZM261.839 464.809V463.177H258.643V464.809H252.115V463.177H250.483V451.855H248.885V450.155H250.483V448.557H253.781V461.511H255.413V463.109H258.575V461.511H260.207V451.855H258.575V450.155H260.207V448.557H263.505V463.109H265.137V464.809H261.839ZM274.837 451.855V453.487H273.205V463.109H274.837V464.809H268.309V463.109H269.907V451.855H268.309V450.155H269.907V448.557H273.205V451.787H274.769V450.155H276.401V448.557H279.699V451.855H274.837ZM300.745 463.177V464.809H294.217V463.177H292.585V461.579H290.987V451.787H292.585V450.155H294.217V448.557H300.745V450.155H302.377V453.487H299.079V450.223H295.883V451.855H294.285V461.511H295.883V463.109H300.677V461.511H302.377V463.177H300.745ZM316.885 464.809V463.177H315.321V464.809H307.161V463.177H305.563V458.281H307.161V456.649H310.425V455.017H315.253V450.223H310.459V451.855H308.861V453.487H307.161V450.155H310.425V448.557H316.953V450.155H318.585V463.109H320.183V464.809H316.885ZM315.253 456.717H310.459V458.315H308.861V463.109H313.655V461.511H315.253V456.717ZM329.921 451.855V453.487H328.289V463.109H329.921V464.809H323.393V463.109H324.991V451.855H323.393V450.155H324.991V448.557H328.289V451.787H329.853V450.155H331.485V448.557H334.783V451.855H329.921ZM347.732 461.579V463.177H346.1V464.809H339.572V463.177H337.94V461.579H336.342V451.787H337.94V450.155H339.572V448.557H346.1V450.155H347.732V451.787H349.364V456.717H339.64V461.511H341.238V463.109H346.032V461.511H347.664V459.879H349.364V461.579H347.732ZM346.032 451.855H344.434V450.223H341.238V451.855H339.64V455.017H346.032V451.855ZM363.902 461.579V463.177H362.27V464.809H355.742V463.177H354.11V461.579H352.512V451.787H354.11V450.155H355.742V448.557H362.27V450.155H363.902V451.787H365.534V456.717H355.81V461.511H357.408V463.109H362.202V461.511H363.834V459.879H365.534V461.579H363.902ZM362.202 451.855H360.604V450.223H357.408V451.855H355.81V455.017H362.202V451.855ZM375.21 451.855V453.487H373.578V463.109H375.21V464.809H368.682V463.109H370.28V451.855H368.682V450.155H370.28V448.557H373.578V451.787H375.142V450.155H376.774V448.557H380.072V451.855H375.21ZM402.682 464.809V463.177H401.118V464.809H392.958V463.177H391.36V458.281H392.958V456.649H396.222V455.017H401.05V450.223H396.256V451.855H394.658V453.487H392.958V450.155H396.222V448.557H402.75V450.155H404.382V463.109H405.98V464.809H402.682ZM401.05 456.717H396.256V458.315H394.658V463.109H399.452V461.511H401.05V456.717ZM418.88 464.809V463.109H420.512V451.855H418.88V450.223H417.35V451.855H415.718V453.487H414.086V463.109H415.718V464.809H409.19V463.109H410.788V451.855H409.19V450.155H410.788V448.557H414.086V451.787H415.65V450.155H417.282V448.557H422.212V450.155H423.81V463.109H425.442V464.809H418.88ZM438.304 464.809V463.177H436.774V464.809H431.844V463.177H430.212V461.579H428.614V451.787H430.212V450.155H431.844V448.557H436.774V450.155H438.304V445.395H436.706V443.695H438.304V442.063H441.636V463.109H443.234V464.809H438.304ZM438.304 451.855H436.706V450.223H433.51V451.855H431.912V461.511H433.51V463.109H436.706V461.511H438.304V451.855ZM467.562 461.579V463.177H465.93V464.809H459.402V463.177H457.77V461.579H456.172V451.787H457.77V450.155H459.402V448.557H465.93V450.155H467.562V451.787H469.194V456.717H459.47V461.511H461.068V463.109H465.862V461.511H467.494V459.879H469.194V461.579H467.562ZM465.862 451.855H464.264V450.223H461.068V451.855H459.47V455.017H465.862V451.855ZM480.434 469.671V467.971H482.032V463.177H480.502V464.809H475.572V463.177H473.94V461.579H472.342V451.787H473.94V450.155H475.572V448.557H482.1V450.155H483.664V448.557H485.364V467.971H486.962V469.671H480.434ZM482.032 450.223H477.238V451.855H475.64V461.511H477.238V463.109H480.434V461.511H482.032V450.223ZM503.126 464.809V463.177H499.93V464.809H493.402V463.177H491.77V451.855H490.172V450.155H491.77V448.557H495.068V461.511H496.7V463.109H499.862V461.511H501.494V451.855H499.862V450.155H501.494V448.557H504.792V463.109H506.424V464.809H503.126ZM511.194 445.395V442.063H514.492V445.395H511.194ZM509.596 464.809V463.109H511.194V451.855H509.596V450.155H511.194V448.557H514.492V463.109H516.124V464.809H509.596ZM532.347 461.579V463.177H530.715V464.809H525.785V463.177H524.221V467.971H525.853V469.671H519.325V467.971H520.923V451.855H519.325V450.155H520.923V448.557H524.221V450.155H525.785V448.557H530.715V450.155H532.347V451.787H533.945V461.579H532.347ZM530.647 451.855H529.015V450.223H525.853V451.855H524.221V461.511H525.853V463.109H529.015V461.511H530.647V451.855ZM558.205 464.809V463.177H556.641V464.809H548.481V463.177H546.883V458.281H548.481V456.649H551.745V455.017H556.573V450.223H551.779V451.855H550.181V453.487H548.481V450.155H551.745V448.557H558.273V450.155H559.905V463.109H561.503V464.809H558.205ZM556.573 456.717H551.779V458.315H550.181V463.109H554.975V461.511H556.573V456.717ZM585.832 450.223V451.787H587.464V455.085H585.832V456.717H584.2V458.315H579.338V459.879H585.832V461.511H587.464V466.441H585.832V468.039H584.2V469.671H576.04V468.039H574.442V464.741H576.04V463.109H577.672V461.579H576.04V458.281H577.672V456.717H576.04V455.085H574.442V451.787H576.04V450.155H577.672V448.557H584.2V450.155H585.764V448.557H589.062V450.223H585.832ZM584.132 451.855H582.534V450.223H579.338V451.855H577.74V455.017H579.338V456.649H582.534V455.017H584.132V451.855ZM585.764 463.177H577.74V464.809H576.108V466.373H577.74V467.971H584.132V466.373H585.764V463.177ZM602.002 461.579V463.177H600.37V464.809H593.842V463.177H592.21V461.579H590.612V451.787H592.21V450.155H593.842V448.557H600.37V450.155H602.002V451.787H603.634V456.717H593.91V461.511H595.508V463.109H600.302V461.511H601.934V459.879H603.634V461.579H602.002ZM600.302 451.855H598.704V450.223H595.508V451.855H593.91V455.017H600.302V451.855ZM616.472 464.809V463.109H618.104V451.855H616.472V450.223H614.942V451.855H613.31V453.487H611.678V463.109H613.31V464.809H606.782V463.109H608.38V451.855H606.782V450.155H608.38V448.557H611.678V451.787H613.242V450.155H614.874V448.557H619.804V450.155H621.402V463.109H623.034V464.809H616.472ZM637.595 461.579V463.177H635.963V464.809H629.435V463.177H627.803V461.579H626.205V451.787H627.803V450.155H629.435V448.557H635.963V450.155H637.595V451.787H639.227V456.717H629.503V461.511H631.101V463.109H635.895V461.511H637.527V459.879H639.227V461.579H637.595ZM635.895 451.855H634.297V450.223H631.101V451.855H629.503V455.017H635.895V451.855ZM648.903 451.855V453.487H647.271V463.109H648.903V464.809H642.375V463.109H643.973V451.855H642.375V450.155H643.973V448.557H647.271V451.787H648.835V450.155H650.467V448.557H653.765V451.855H648.903ZM666.647 464.809V463.177H665.083V464.809H656.923V463.177H655.325V458.281H656.923V456.649H660.187V455.017H665.015V450.223H660.221V451.855H658.623V453.487H656.923V450.155H660.187V448.557H666.715V450.155H668.347V463.109H669.945V464.809H666.647ZM665.015 456.717H660.221V458.315H658.623V463.109H663.417V461.511H665.015V456.717ZM676.385 464.809V463.177H674.753V450.223H673.155V448.557H674.753V446.925H676.385V445.327H678.051V448.557H681.315V450.223H678.051V463.109H681.315V464.809H676.385ZM686.075 445.395V442.063H689.373V445.395H686.075ZM684.477 464.809V463.109H686.075V451.855H684.477V450.155H686.075V448.557H689.373V463.109H691.005V464.809H684.477ZM707.227 459.947V463.177H703.963V464.809H699.067V463.177H695.803V459.947H694.205V453.419H695.803V450.155H699.067V448.557H703.963V450.155H707.227V453.419H708.825V459.947H707.227ZM705.527 453.487H703.895V450.223H699.101V453.487H697.503V459.879H699.101V463.109H703.895V459.879H705.527V453.487ZM721.726 464.809V463.109H723.358V451.855H721.726V450.223H720.196V451.855H718.564V453.487H716.932V463.109H718.564V464.809H712.036V463.109H713.634V451.855H712.036V450.155H713.634V448.557H716.932V451.787H718.496V450.155H720.128V448.557H725.058V450.155H726.656V463.109H728.288V464.809H721.726ZM190.62 506.579V508.177H188.988V509.809H184.058V508.177H182.494V512.971H184.126V514.671H177.598V512.971H179.196V496.855H177.598V495.155H179.196V493.557H182.494V495.155H184.058V493.557H188.988V495.155H190.62V496.787H192.218V506.579H190.62ZM188.92 496.855H187.288V495.223H184.126V496.855H182.494V506.511H184.126V508.109H187.288V506.511H188.92V496.855ZM206.75 509.809V508.177H205.186V509.809H197.026V508.177H195.428V503.281H197.026V501.649H200.29V500.017H205.118V495.223H200.324V496.855H198.726V498.487H197.026V495.155H200.29V493.557H206.818V495.155H208.45V508.109H210.048V509.809H206.75ZM205.118 501.717H200.324V503.315H198.726V508.109H203.52V506.511H205.118V501.717ZM221.418 508.177V509.809H213.258V506.511H214.924V508.109H219.718V504.947H218.12V503.315H216.488V501.717H214.856V500.085H213.258V495.155H214.856V493.557H223.016V496.855H221.35V495.223H216.556V498.419H218.154V500.017H219.786V501.649H221.418V503.281H223.016V508.177H221.418ZM234.367 508.177V509.809H226.207V506.511H227.873V508.109H232.667V504.947H231.069V503.315H229.437V501.717H227.805V500.085H226.207V495.155H227.805V493.557H235.965V496.855H234.299V495.223H229.505V498.419H231.103V500.017H232.735V501.649H234.367V503.281H235.965V508.177H234.367ZM240.755 490.395V487.063H244.053V490.395H240.755ZM239.157 509.809V508.109H240.755V496.855H239.157V495.155H240.755V493.557H244.053V508.109H245.685V509.809H239.157ZM261.907 504.947V508.177H258.643V509.809H253.747V508.177H250.483V504.947H248.885V498.419H250.483V495.155H253.747V493.557H258.643V495.155H261.907V498.419H263.505V504.947H261.907ZM260.207 498.487H258.575V495.223H253.781V498.487H252.183V504.879H253.781V508.109H258.575V504.879H260.207V498.487ZM276.405 509.809V508.109H278.037V496.855H276.405V495.223H274.875V496.855H273.243V498.487H271.611V508.109H273.243V509.809H266.715V508.109H268.313V496.855H266.715V495.155H268.313V493.557H271.611V496.787H273.175V495.155H274.807V493.557H279.737V495.155H281.335V508.109H282.967V509.809H276.405ZM297.461 509.809V508.177H295.897V509.809H287.737V508.177H286.139V503.281H287.737V501.649H291.001V500.017H295.829V495.223H291.035V496.855H289.437V498.487H287.737V495.155H291.001V493.557H297.529V495.155H299.161V508.109H300.759V509.809H297.461ZM295.829 501.717H291.035V503.315H289.437V508.109H294.231V506.511H295.829V501.717ZM307.199 509.809V508.177H305.567V495.223H303.969V493.557H305.567V491.925H307.199V490.327H308.865V493.557H312.129V495.223H308.865V508.109H312.129V509.809H307.199ZM326.681 506.579V508.177H325.049V509.809H318.521V508.177H316.889V506.579H315.291V496.787H316.889V495.155H318.521V493.557H325.049V495.155H326.681V496.787H328.313V501.717H318.589V506.511H320.187V508.109H324.981V506.511H326.613V504.879H328.313V506.579H326.681ZM324.981 496.855H323.383V495.223H320.187V496.855H318.589V500.017H324.981V496.855ZM352.512 509.809V508.177H350.948V509.809H342.788V508.177H341.19V503.281H342.788V501.649H346.052V500.017H350.88V495.223H346.086V496.855H344.488V498.487H342.788V495.155H346.052V493.557H352.58V495.155H354.212V508.109H355.81V509.809H352.512ZM350.88 501.717H346.086V503.315H344.488V508.109H349.282V506.511H350.88V501.717ZM368.71 509.809V508.109H370.342V496.855H368.71V495.223H367.18V496.855H365.548V498.487H363.916V508.109H365.548V509.809H359.02V508.109H360.618V496.855H359.02V495.155H360.618V493.557H363.916V496.787H365.48V495.155H367.112V493.557H372.042V495.155H373.64V508.109H375.272V509.809H368.71ZM388.134 509.809V508.177H386.604V509.809H381.674V508.177H380.042V506.579H378.444V496.787H380.042V495.155H381.674V493.557H386.604V495.155H388.134V490.395H386.536V488.695H388.134V487.063H391.466V508.109H393.064V509.809H388.134ZM388.134 496.855H386.536V495.223H383.34V496.855H381.742V506.511H383.34V508.109H386.536V506.511H388.134V496.855ZM427.116 495.223V498.487H425.484V503.315H423.852V506.579H422.254V509.809H420.554V506.579H418.956V503.315H417.324V498.487H415.76V503.315H414.162V506.579H412.53V509.809H410.864V506.579H409.232V503.315H407.6V498.487H406.002V495.223H404.37V493.557H410.898V495.223H409.3V498.419H410.898V503.281H414.094V498.419H415.692V495.223H414.094V493.557H420.622V495.223H419.024V498.419H420.622V503.281H423.784V498.419H425.416V495.223H423.784V493.557H428.714V495.223H427.116ZM431.872 490.395V487.063H435.17V490.395H431.872ZM430.274 509.809V508.109H431.872V496.855H430.274V495.155H431.872V493.557H435.17V508.109H436.802V509.809H430.274ZM440.002 509.809V508.109H441.6V490.395H440.002V488.695H441.6V487.063H444.898V508.109H446.53V509.809H440.002ZM449.731 509.809V508.109H451.329V490.395H449.731V488.695H451.329V487.063H454.627V508.109H456.259V509.809H449.731ZM461.057 490.395V487.063H464.355V490.395H461.057ZM459.459 509.809V508.109H461.057V496.855H459.459V495.155H461.057V493.557H464.355V508.109H465.987V509.809H459.459ZM478.878 509.809V508.109H480.51V496.855H478.878V495.223H477.348V496.855H475.716V498.487H474.084V508.109H475.716V509.809H469.188V508.109H470.786V496.855H469.188V495.155H470.786V493.557H474.084V496.787H475.648V495.155H477.28V493.557H482.21V495.155H483.808V508.109H485.44V509.809H478.878ZM500.002 495.223V496.787H501.634V500.085H500.002V501.717H498.37V503.315H493.508V504.879H500.002V506.511H501.634V511.441H500.002V513.039H498.37V514.671H490.21V513.039H488.612V509.741H490.21V508.109H491.842V506.579H490.21V503.281H491.842V501.717H490.21V500.085H488.612V496.787H490.21V495.155H491.842V493.557H498.37V495.155H499.934V493.557H503.232V495.223H500.002ZM498.302 496.855H496.704V495.223H493.508V496.855H491.91V500.017H493.508V501.649H496.704V500.017H498.302V496.855ZM499.934 508.177H491.91V509.809H490.278V511.373H491.91V512.971H498.302V511.373H499.934V508.177ZM517.74 509.809V508.177H516.108V495.223H514.51V493.557H516.108V491.925H517.74V490.327H519.406V493.557H522.67V495.223H519.406V508.109H522.67V509.809H517.74ZM538.854 504.947V508.177H535.59V509.809H530.694V508.177H527.43V504.947H525.832V498.419H527.43V495.155H530.694V493.557H535.59V495.155H538.854V498.419H540.452V504.947H538.854ZM537.154 498.487H535.522V495.223H530.728V498.487H529.13V504.879H530.728V508.109H535.522V504.879H537.154V498.487ZM554.989 490.395V487.063H558.287V490.395H554.989ZM553.391 509.809V508.109H554.989V496.855H553.391V495.155H554.989V493.557H558.287V508.109H559.919V509.809H553.391ZM572.809 509.809V508.109H574.441V496.855H572.809V495.223H571.279V496.855H569.647V498.487H568.015V508.109H569.647V509.809H563.119V508.109H564.717V496.855H563.119V495.155H564.717V493.557H568.015V496.787H569.579V495.155H571.211V493.557H576.141V495.155H577.739V508.109H579.371V509.809H572.809ZM590.703 508.177V509.809H582.543V506.511H584.209V508.109H589.003V504.947H587.405V503.315H585.773V501.717H584.141V500.085H582.543V495.155H584.141V493.557H592.301V496.855H590.635V495.223H585.841V498.419H587.439V500.017H589.071V501.649H590.703V503.281H592.301V508.177H590.703ZM608.515 506.579V508.177H606.883V509.809H601.953V508.177H600.389V512.971H602.021V514.671H595.493V512.971H597.091V496.855H595.493V495.155H597.091V493.557H600.389V495.155H601.953V493.557H606.883V495.155H608.515V496.787H610.113V506.579H608.515ZM606.815 496.855H605.183V495.223H602.021V496.855H600.389V506.511H602.021V508.109H605.183V506.511H606.815V496.855ZM614.921 490.395V487.063H618.219V490.395H614.921ZM613.323 509.809V508.109H614.921V496.855H613.323V495.155H614.921V493.557H618.219V508.109H619.851V509.809H613.323ZM629.579 496.855V498.487H627.947V508.109H629.579V509.809H623.051V508.109H624.649V496.855H623.051V495.155H624.649V493.557H627.947V496.787H629.511V495.155H631.143V493.557H634.441V496.855H629.579ZM647.39 506.579V508.177H645.758V509.809H639.23V508.177H637.598V506.579H636V496.787H637.598V495.155H639.23V493.557H645.758V495.155H647.39V496.787H649.022V501.717H639.298V506.511H640.896V508.109H645.69V506.511H647.322V504.879H649.022V506.579H647.39ZM645.69 496.855H644.092V495.223H640.896V496.855H639.298V500.017H645.69V496.855ZM671.657 508.177V509.809H665.129V508.177H663.497V506.579H661.899V496.787H663.497V495.155H665.129V493.557H671.657V495.155H673.289V498.487H669.991V495.223H666.795V496.855H665.197V506.511H666.795V508.109H671.589V506.511H673.289V508.177H671.657ZM686.165 509.809V508.109H687.797V496.855H686.165V495.223H684.635V496.855H683.003V498.487H681.371V508.109H683.003V509.809H676.475V508.109H678.073V490.395H676.475V488.695H678.073V487.063H681.371V496.787H682.935V495.155H684.567V493.557H689.497V495.155H691.095V508.109H692.727V509.809H686.165ZM707.221 509.809V508.177H705.657V509.809H697.497V508.177H695.899V503.281H697.497V501.649H700.761V500.017H705.589V495.223H700.795V496.855H699.197V498.487H697.497V495.155H700.761V493.557H707.289V495.155H708.921V508.109H710.519V509.809H707.221ZM705.589 501.717H700.795V503.315H699.197V508.109H703.991V506.511H705.589V501.717ZM723.419 509.809V508.109H725.051V496.855H723.419V495.223H721.889V496.855H720.257V498.487H718.625V508.109H720.257V509.809H713.729V508.109H715.327V496.855H713.729V495.155H715.327V493.557H718.625V496.787H720.189V495.155H721.821V493.557H726.751V495.155H728.349V508.109H729.981V509.809H723.419ZM744.543 495.223V496.787H746.175V500.085H744.543V501.717H742.911V503.315H738.049V504.879H744.543V506.511H746.175V511.441H744.543V513.039H742.911V514.671H734.751V513.039H733.153V509.741H734.751V508.109H736.383V506.579H734.751V503.281H736.383V501.717H734.751V500.085H733.153V496.787H734.751V495.155H736.383V493.557H742.911V495.155H744.475V493.557H747.773V495.223H744.543ZM742.843 496.855H741.245V495.223H738.049V496.855H736.451V500.017H738.049V501.649H741.245V500.017H742.843V496.855ZM744.475 508.177H736.451V509.809H734.819V511.373H736.451V512.971H742.843V511.373H744.475V508.177ZM760.713 506.579V508.177H759.081V509.809H752.553V508.177H750.921V506.579H749.323V496.787H750.921V495.155H752.553V493.557H759.081V495.155H760.713V496.787H762.345V501.717H752.621V506.511H754.219V508.109H759.013V506.511H760.645V504.879H762.345V506.579H760.713ZM759.013 496.855H757.415V495.223H754.219V496.855H752.621V500.017H759.013V496.855ZM765.493 509.809V506.511H768.791V509.809H765.493Z" fill="#5B81F1"/>
<path d="M213.82 225.768V221.318H218.092V213.041H213.82V208.769H192.816V213.041H188.544V221.318H192.816V225.768H179.911V221.318H184.183V212.863H188.366V200.136H192.638V187.409H196.91V174.771H201.093V166.227H209.726V174.771H213.998V187.409H218.27V200.136H222.453V212.863H226.725V221.318H230.908V225.768H213.82ZM213.82 200.314H209.548V187.587H205.365V179.132H201.271V187.587H196.999V200.314H192.816V204.408H213.82V200.314ZM273.298 217.313V221.496H269.115V225.768H235.028V221.318H239.211V170.677H235.028V166.227H264.843V170.499H269.115V174.771H273.298V187.587H269.115V195.953H273.298V200.136H277.57V217.313H273.298ZM264.665 174.949H260.393V170.677H247.844V191.681H260.393V187.409H264.665V174.949ZM268.937 200.314H264.665V196.131H247.844V221.318H264.665V217.135H268.937V200.314ZM328.414 208.769V217.313H324.142V221.496H315.687V225.768H302.782V221.496H294.327V217.313H290.055V208.769H285.872V183.226H290.055V174.771H294.327V170.499H302.782V166.227H315.687V170.499H324.142V174.771H328.414V183.226H332.597V208.769H328.414ZM323.964 183.404H319.781V174.949H315.509V170.677H302.96V174.949H298.688V183.404H294.505V208.68H298.688V217.135H302.96V221.318H315.509V217.135H319.781V208.68H323.964V183.404ZM379.246 170.677V217.313H375.063V221.496H370.791V225.768H353.703V221.496H349.431V217.313H345.159V170.677H340.976V166.227H358.064V170.677H353.792V217.135H358.064V221.318H370.613V217.135H374.885V170.677H370.613V166.227H383.518V170.677H379.246ZM425.73 174.949V170.677H413.181V221.318H417.364V225.768H400.276V221.318H404.548V170.677H391.999V174.949H387.549V166.227H430.091V174.949H425.73ZM493.523 174.949V170.677H480.974V221.318H485.157V225.768H468.069V221.318H472.341V170.677H459.792V174.949H455.342V166.227H497.884V174.949H493.523ZM531.578 225.768V221.318H535.85V196.131H514.757V221.318H519.029V225.768H501.941V221.318H506.124V170.677H501.941V166.227H519.029V170.677H514.757V191.681H535.85V170.677H531.578V166.227H548.666V170.677H544.483V221.318H548.666V225.768H531.578ZM557.044 225.768V221.318H561.227V170.677H557.044V166.227H591.131V174.949H586.681V170.677H569.86V191.681H582.409V187.409H586.859V200.314H582.409V196.131H569.86V221.318H586.681V217.135H591.131V225.768H557.044ZM667.201 225.768V221.318H671.384V183.404H667.379V191.859H663.107V200.314H658.924V208.769H654.652V217.313H650.202V208.769H646.019V200.314H641.747V191.859H637.564V183.404H633.47V221.318H637.653V225.768H624.837V221.318H629.02V170.677H624.837V166.227H637.653V174.771H641.925V183.226H646.197V191.681H650.38V200.136H658.746V191.681H662.929V183.226H667.201V174.771H671.384V166.227H684.289V170.677H680.106V221.318H684.289V225.768H667.201ZM722.267 225.768V221.318H726.539V213.041H722.267V208.769H701.263V213.041H696.991V221.318H701.263V225.768H688.358V221.318H692.63V212.863H696.813V200.136H701.085V187.409H705.357V174.771H709.54V166.227H718.173V174.771H722.445V187.409H726.717V200.136H730.9V212.863H735.172V221.318H739.355V225.768H722.267ZM722.267 200.314H717.995V187.587H713.812V179.132H709.718V187.587H705.446V200.314H701.263V204.408H722.267V200.314ZM786.017 200.314V225.768H781.567V221.496H773.29V225.768H756.202V221.496H751.93V217.313H747.658V208.769H743.475V181.09H747.658V174.771H751.93V170.499H756.202V166.227H781.745V174.949H777.384V170.677H760.563V174.949H756.291V183.404H752.108V208.68H756.291V217.135H760.563V221.318H773.112V217.135H777.384V200.314H773.112V195.953H790.2V200.314H786.017ZM798.579 208.769V166.227H807.212V208.769H798.579ZM798.579 225.768V217.135H807.212V225.768H798.579Z" fill="#5B81F1"/>
</svg>
